<?xml version="1.0" encoding="UTF-8"?>
<svg id="_图层_1" data-name=" 图层 1" xmlns="http://www.w3.org/2000/svg" viewBox="0 0 257 257">
  <rect width="257" height="257" style="fill: #ff0316;"/>
  <g>
    <path d="M98.89,215.83c-1.39-1.05-2.67-1.8-4.02-2.28-1.36-.48-2.76-.73-4.23-.8-2.94-.13-6.15,.42-9.22,1.16-3.07,.75-5.99,1.67-8.18,2.42-2.17,.72-3.59,1.29-3.59,1.29,0,0,1.39,.81,3.62,1.76s5.32,2.03,8.69,2.62c3.34,.58,7,.66,10.18-.26,3.16-.9,5.86-2.84,6.75-5.9h0Z" style="fill: #f4cb3c;"/>
    <path d="M89.5,202.21c1.19,2.68,2.93,5.31,5.21,7.02,1.13,.84,2.4,1.48,3.77,1.75,1.36,.26,2.81,.19,4.23-.4,.07-3.21-.8-5.75-2.18-7.97-1.38-2.21-3.33-4.12-5.35-5.77-2.02-1.64-4.09-3.01-5.65-3.99-1.56-.98-2.62-1.55-2.62-1.55,0,0,0,.35,.07,.95,.06,.6,.16,1.46,.33,2.49,.35,2.05,1,4.81,2.21,7.49l-.02-.02Z" style="fill: #f4cb3c;"/>
    <path d="M67.41,209.37c3.07-.15,5.8-1.33,7.71-3.9-1.52-2.73-3.84-4.2-6.62-5.06-2.77-.85-6.01-1.08-9.19-1.18-3.17-.09-6.32-.02-8.68,0-2.43,.05-3.95,.07-3.95,.07,0,0,.29,.33,.84,.86,.55,.51,1.35,1.26,2.34,2.07,2,1.65,4.83,3.58,7.95,4.98,3.12,1.41,6.52,2.31,9.6,2.16h0Z" style="fill: #f4cb3c;"/>
    <path d="M73.26,197.24c1.75,2.22,4.18,3.67,7.21,3.51,1.23-2.95,1.02-5.77,.18-8.36-.83-2.58-2.31-4.95-3.8-7.02-1.5-2.06-3.03-3.83-4.16-5.09-.55-.63-1.02-1.14-1.36-1.48-.31-.35-.5-.54-.5-.54,0,0-.1,.31-.26,.89-.15,.57-.32,1.39-.48,2.39-.33,2.01-.47,4.77-.04,7.66,.42,2.87,1.45,5.82,3.2,8.04h.01Z" style="fill: #f4cb3c;"/>
    <path d="M35.62,175.19c-2.18-.68-3.59-1.08-3.59-1.08,0,0,.13,.36,.41,.97,.29,.6,.73,1.45,1.29,2.45s1.25,2.16,2.05,3.38c.4,.61,.82,1.23,1.27,1.86l.36,.48,.44,.58c.31,.39,.62,.78,.93,1.17,2.55,3.03,5.69,5.35,8.78,6.32,3.09,.99,6.09,.67,8.66-1.25-.72-3.07-2.45-5.16-4.78-6.98-.57-.47-1.21-.88-1.84-1.32-.64-.43-1.32-.85-2.01-1.26-.69-.44-1.4-.85-2.13-1.26-.69-.38-1.36-.71-2.06-1.04-2.76-1.31-5.61-2.31-7.78-3v-.02h0Z" style="fill: #f4cb3c;"/>
    <path d="M56.97,180.65c.82,2.65,2.74,4.83,5.64,5.5,2.03-2.48,2.67-5.19,2.83-7.75,.14-2.57-.18-4.99-.46-7.03-.1-.86-.44-2.32-.76-3.46-.33-1.17-.69-2.23-1.02-3.11-.33-.89-.64-1.61-.85-2.11-.18-.51-.3-.8-.3-.8,0,0-.21,.29-.54,.81-.35,.52-.77,1.26-1.26,2.18-.96,1.84-2.13,4.42-2.93,7.27-.21,.72-.38,1.45-.52,2.19-.14,.69-.24,1.4-.31,2.11-.03,.71,0,1.42,.06,2.14,.07,.71,.24,1.39,.42,2.06h0Z" style="fill: #f4cb3c;"/>
    <path d="M32.29,164.42c.5,.62,1.09,1.16,1.69,1.67,.59,.51,1.2,.97,1.84,1.38,2.53,1.63,5.35,2.31,8.42,1.42,.26-1.53,.14-2.93-.26-4.23-.2-.64-.48-1.27-.82-1.87-.33-.6-.75-1.17-1.14-1.75-1.65-2.29-4.19-4.27-6.75-6.03-2.49-1.78-5.11-3.32-7.11-4.43-2.05-1.1-3.34-1.78-3.34-1.78,0,0,.06,.39,.23,1.05,.18,.66,.45,1.59,.83,2.71,.76,2.22,1.82,5.21,3.59,7.94,.85,1.37,1.8,2.73,2.83,3.93h0Z" style="fill: #f4cb3c;"/>
    <path d="M48.86,163.22c.59,1.2,1.47,2.27,2.69,3.13,2.78-1.59,4.38-3.98,5.22-6.57,.21-.65,.37-1.31,.5-1.99,.06-.33,.11-.67,.16-1,.04-.34,.1-.68,.15-1.03,.18-1.37,.22-2.74,.18-4.06-.18-2.62-.33-5.1-.67-6.89-.15-.9-.32-1.64-.43-2.15-.09-.52-.14-.8-.14-.8,0,0-.26,.23-.68,.67-.45,.43-1,1.06-1.65,1.85-1.3,1.6-2.93,3.88-4.24,6.53-1.25,2.62-2.06,5.58-2.04,8.39,0,.71,.1,1.38,.27,2.03,.16,.66,.39,1.29,.69,1.89h-.01Z" style="fill: #f4cb3c;"/>
    <path d="M26.95,139.17c.39,.7,.8,1.39,1.27,2.02,.49,.62,1.01,1.2,1.55,1.73,2.19,2.12,4.83,3.34,8.01,3.04,.54-1.45,.7-2.85,.55-4.19-.08-.67-.23-1.33-.44-1.98-.21-.66-.42-1.31-.73-1.94-.59-1.29-1.4-2.54-2.34-3.77-.49-.61-.97-1.21-1.44-1.82-.49-.59-.99-1.18-1.5-1.75-2.08-2.29-4.39-4.39-5.98-5.96-1.64-1.56-2.81-2.55-2.81-2.55,0,0-.04,1.59,.1,3.98,.08,1.19,.33,2.58,.6,4.06,.14,.74,.3,1.51,.49,2.29,.18,.77,.37,1.56,.67,2.33,.56,1.55,1.23,3.08,2.01,4.5h-.01Z" style="fill: #f4cb3c;"/>
    <path d="M45.35,144.26c3.03-1.05,5.06-3.06,6.39-5.37,.34-.58,.62-1.18,.87-1.79,.29-.61,.55-1.24,.77-1.87,.44-1.26,.76-2.55,.97-3.8,.24-1.24,.5-2.46,.62-3.58,.07-.56,.11-1.1,.15-1.61,.03-.51,.05-.99,.11-1.43,.2-1.74,.17-2.89,.17-2.89,0,0-1.18,.65-2.85,1.86-.42,.3-.87,.64-1.34,1.01-.48,.38-.96,.78-1.42,1.23-.94,.88-1.9,1.9-2.82,3.02-.46,.56-.89,1.15-1.32,1.76-.2,.31-.41,.62-.6,.94-.18,.31-.35,.64-.5,.96-.63,1.29-1.12,2.64-1.38,4.01-.11,.68-.21,1.36-.19,2.03,.03,.67,.14,1.33,.31,1.97,.36,1.29,1.01,2.5,2.04,3.55h.02Z" style="fill: #f4cb3c;"/>
    <path d="M34.33,105.92c-.71-1.36-1.47-2.69-2.22-3.93-.77-1.25-1.46-2.38-2.04-3.33-1.19-1.92-2.06-3.17-2.06-3.17,0,0-.45,1.51-.93,3.85-.18,1.19-.35,2.58-.46,4.09-.06,.75-.1,1.53-.12,2.33,0,.8,.05,1.62,.12,2.45,.14,1.64,.35,3.3,.77,4.87,.47,1.58,1.08,3.07,1.86,4.35,1.5,2.6,3.93,4.4,7.09,4.85,.41-.64,.72-1.28,.95-1.94,.22-.65,.44-1.31,.53-1.97,.22-1.33,.11-2.69-.21-4.08-.27-1.38-.69-2.78-1.29-4.19-.6-1.41-1.33-2.83-2.01-4.19h.02Z" style="fill: #f4cb3c;"/>
    <path d="M51.48,118.03c.96-.93,1.76-1.98,2.44-3.08,.74-1.09,1.41-2.21,1.93-3.33,.28-.56,.49-1.12,.75-1.66s.49-1.07,.7-1.58c.43-1.02,.73-1.98,1.02-2.8,.63-1.62,.89-2.71,.89-2.71,0,0-1.3,.31-3.23,1.04-1.98,.71-4.35,1.91-6.71,3.59-.58,.42-1.19,.87-1.71,1.36-.52,.48-1.04,.99-1.51,1.53-.94,1.08-1.8,2.25-2.36,3.5-.53,1.25-.84,2.56-.84,3.88,0,.65,.06,1.31,.27,1.96,.22,.65,.51,1.3,.91,1.93,3.2-.3,5.49-1.77,7.45-3.63h0Z" style="fill: #f4cb3c;"/>
    <path d="M42.17,97.54c.42-.55,.76-1.14,1.03-1.75s.46-1.25,.59-1.92c.13-.66,.18-1.35,.26-2.04,.1-1.39,0-2.86-.23-4.37s-.49-3.01-.88-4.52c-.77-3.02-1.61-5.85-2.35-8.02-.75-2.17-1.26-3.55-1.26-3.55,0,0-.21,.32-.53,.92-.32,.61-.75,1.47-1.22,2.55-1.02,2.12-2.03,5.14-2.67,8.32-.26,1.62-.43,3.27-.43,4.88-.02,.8,.06,1.61,.19,2.39,.11,.79,.27,1.54,.49,2.26,.44,1.45,1.05,2.73,2,3.84,.95,1.11,2.13,2,3.6,2.62,.57-.51,1.04-1.05,1.42-1.62h0Z" style="fill: #f4cb3c;"/>
    <path d="M67.29,86.06c.27-.43,.42-.68,.42-.68,0,0-.35,0-.94,.02-.61,.02-1.44,.09-2.45,.21-1.01,.12-2.19,.32-3.47,.61-.63,.15-1.31,.3-1.96,.51-.64,.21-1.31,.44-1.97,.7-1.31,.53-2.68,1.17-3.86,1.96-1.17,.8-2.25,1.73-3.14,2.77-.46,.51-.8,1.08-1.1,1.67-.29,.58-.52,1.2-.69,1.83-.16,.63-.24,1.29-.24,1.96,.03,.68,.17,1.37,.39,2.08,1.57,.26,3.03,.19,4.37-.11,1.32-.3,2.62-.8,3.76-1.45,.58-.33,1.12-.7,1.64-1.09,.27-.19,.51-.4,.75-.61,.26-.2,.52-.41,.76-.63,1-.86,1.89-1.79,2.68-2.75,.84-.93,1.61-1.87,2.24-2.78,.16-.22,.31-.45,.46-.66,.17-.22,.31-.43,.47-.63,.29-.41,.57-.8,.8-1.16,.48-.73,.84-1.35,1.1-1.78h-.02Z" style="fill: #f4cb3c;"/>
    <path d="M50.8,78.05c1.36-.69,2.38-1.6,3.15-2.67,.83-1.04,1.39-2.26,1.77-3.61,.83-2.64,.96-5.8,.92-8.84,0-.77-.04-1.54-.09-2.29-.03-.73-.07-1.46-.13-2.16-.1-1.41-.24-2.72-.37-3.84-.23-2.22-.48-3.69-.48-3.69,0,0-.26,.29-.7,.78-.43,.5-1.05,1.22-1.73,2.17-.68,.94-1.48,2.02-2.23,3.28-.73,1.26-1.5,2.63-2.12,4.11-.61,1.49-1.17,3.01-1.5,4.57-.34,1.56-.49,3.12-.42,4.6,.19,3,1.37,5.68,3.91,7.6h.02Z" style="fill: #f4cb3c;"/>
    <path d="M73.05,76.44c1.03-.74,2-1.5,2.83-2.25,.86-.74,1.64-1.43,2.26-2.05,.62-.63,1.16-1.13,1.51-1.51,.35-.36,.54-.58,.54-.58,0,0-1.32-.29-3.39-.5-1.03-.1-2.21-.15-3.53-.14s-2.73,.09-4.13,.32c-2.84,.42-5.7,1.38-7.9,3-1.06,.84-1.96,1.82-2.58,2.96-.59,1.16-.89,2.49-.82,3.94,2.94,1.28,5.73,1.17,8.26,.43,1.29-.36,2.52-.89,3.65-1.53,1.16-.62,2.27-1.33,3.28-2.09,0,0,.02,0,.02,0Z" style="fill: #f4cb3c;"/>
    <path d="M67.39,196.77c8.37,6.95,18.58,11.7,28.6,15.74,8.2,3.32,18.71,8.73,29.42,13.77-9.63,3-19.13,5.45-26.76,6.73-1,.16,4.14,5.4,5.1,5.1,8.87-2.67,17.87-5.91,26.74-9.49,9.69,4.4,19.26,8.18,27.15,9.5,.99,.16,4.08-5.11,3.08-5.28-7.47-1.25-16.14-3.47-25.17-6.3,14.88-6.25,29.2-13.31,41.58-20.05,13.44-7.32,23.53-17.72,30.17-31.54,6.15-12.79,10.48-26.94,11.12-41.16,.88-19.69-5.73-38.99-15.98-55.58-3-4.86-6.36-9.7-10.08-14.2,.33-1.25,.37-2.46,.15-3.61-.25-1.36-.78-2.66-1.59-3.83-1.56-2.38-4.09-4.3-6.67-5.74-2.6-1.42-5.31-2.32-7.33-2.8-1.02-.25-1.85-.39-2.44-.47-.29-.03-.52-.06-.67-.07h-.21s.03,.07,.09,.2c.07,.13,.16,.34,.29,.59,.27,.52,.65,1.26,1.13,2.15,.96,1.78,2.27,4.12,3.83,6.4,.76,1.15,1.64,2.25,2.53,3.29,.45,.51,.93,1,1.44,1.45,.49,.46,.99,.89,1.53,1.27,1.09,.73,2.23,1.34,3.52,1.67,.97,.24,2,.35,3.1,.28,7.15,8.45,12.99,18.27,17.45,28.12,5.67,12.55,8.69,26.22,8.36,40-.35,15.02-5.36,30.27-12.09,43.62-5.24,10.38-12.88,18.85-22.64,25.17-8.73,5.64-18.31,9.88-27.84,14-7.13,3.09-15.6,6.26-24.19,9.08-18.39-6.14-37.61-14.45-50.93-21.98-6.96-3.92-13.26-8.74-18.48-14.83-5.21-6.08-8.97-13.29-11.98-20.66-5.72-13.98-9.35-28.44-8.46-43.63,1.04-17.71,7.99-34.64,17.68-49.33,2.49-3.76,5.18-7.51,8.11-11.05,1.05,.05,2.05-.06,3-.29,1.28-.32,2.42-.93,3.52-1.67,.53-.38,1.05-.8,1.53-1.26,.51-.45,.98-.93,1.43-1.45,.91-1.05,1.76-2.13,2.54-3.29,1.55-2.28,2.86-4.63,3.82-6.41,.48-.89,.87-1.64,1.12-2.16,.13-.26,.23-.46,.3-.59,.05-.13,.08-.2,.08-.2h-.21c-.15,0-.38,.04-.66,.07-.59,.08-1.43,.23-2.44,.47-2.02,.49-4.72,1.38-7.33,2.8-2.58,1.44-5.11,3.35-6.67,5.74-.8,1.17-1.35,2.47-1.58,3.82-.22,1.13-.18,2.32,.13,3.55-6.84,8.13-12.5,17.49-16.89,26.86-5.41,11.59-8.68,24.12-9.18,36.93-.56,14.7,3.44,28.79,8.97,42.28,4.44,10.85,10.78,20.71,19.86,28.24v.03h0Z" style="fill: #f4cb3c;"/>
    <path d="M175.05,223.48c3.36-.58,6.45-1.66,8.69-2.61,2.22-.96,3.61-1.75,3.61-1.75,0,0-1.42-.57-3.6-1.29-2.18-.74-5.1-1.67-8.17-2.42-3.08-.74-6.27-1.29-9.22-1.16-1.48,.06-2.88,.31-4.23,.8-1.36,.48-2.63,1.23-4.02,2.28,.89,3.07,3.59,5.01,6.75,5.91,3.18,.92,6.83,.85,10.19,.25h0Z" style="fill: #f4cb3c;"/>
    <path d="M158.53,212.46c1.36-.26,2.61-.9,3.76-1.74,2.27-1.71,4.01-4.33,5.21-7.01,1.2-2.68,1.85-5.44,2.2-7.5,.17-1.03,.27-1.89,.33-2.49,.05-.6,.07-.95,.07-.95,0,0-1.06,.57-2.62,1.54-1.56,.98-3.63,2.35-5.66,4-2.01,1.65-3.98,3.56-5.36,5.77-1.37,2.22-2.24,4.76-2.16,7.97,1.4,.6,2.86,.67,4.23,.4h0Z" style="fill: #f4cb3c;"/>
    <path d="M197.68,200.73c-3.18,.11-6.43,.33-9.19,1.18-2.77,.86-5.09,2.34-6.61,5.06,1.9,2.57,4.63,3.76,7.7,3.9,3.07,.15,6.48-.74,9.6-2.16,3.12-1.41,5.94-3.33,7.94-4.99,1-.81,1.8-1.56,2.35-2.07,.55-.54,.84-.86,.84-.86,0,0-1.52-.03-3.94-.07-2.37,0-5.51-.08-8.68,0h-.01Z" style="fill: #f4cb3c;"/>
    <path d="M176.52,202.24c3.02,.16,5.46-1.3,7.21-3.51,1.73-2.22,2.78-5.17,3.2-8.04,.42-2.89,.28-5.65-.05-7.66-.15-1-.33-1.82-.48-2.39-.15-.57-.26-.89-.26-.89,0,0-.18,.19-.5,.54-.34,.35-.8,.85-1.35,1.49-1.12,1.27-2.65,3.02-4.16,5.08-1.49,2.07-2.97,4.44-3.81,7.02-.82,2.6-1.04,5.41,.2,8.36h0Z" style="fill: #f4cb3c;"/>
    <path d="M218.21,186.48c.32-.38,.63-.77,.93-1.16l.44-.59,.35-.48c.45-.62,.87-1.24,1.27-1.85,.8-1.21,1.49-2.38,2.06-3.38,.56-1.01,.99-1.85,1.28-2.45,.28-.61,.42-.97,.42-.97,0,0-1.41,.41-3.6,1.09-2.16,.69-5,1.69-7.77,2.99-.7,.33-1.38,.67-2.06,1.05-.73,.41-1.44,.83-2.13,1.25s-1.37,.83-2.01,1.27c-.64,.43-1.28,.85-1.85,1.32-2.33,1.82-4.05,3.91-4.77,6.98,2.56,1.92,5.56,2.25,8.66,1.25,3.08-.97,6.24-3.29,8.78-6.33h0Z" style="fill: #f4cb3c;"/>
    <path d="M199.68,173.64c-.81-2.86-1.98-5.43-2.94-7.27-.49-.92-.91-1.66-1.26-2.18-.34-.52-.54-.81-.54-.81,0,0-.11,.29-.3,.79-.21,.51-.52,1.23-.85,2.12s-.69,1.94-1.01,3.11c-.32,1.14-.67,2.6-.77,3.46-.27,2.03-.6,4.46-.46,7.03,.17,2.56,.8,5.28,2.83,7.75,2.92-.68,4.82-2.85,5.65-5.51,.19-.67,.36-1.35,.43-2.06,.06-.71,.09-1.42,.04-2.13-.06-.72-.16-1.43-.3-2.11-.15-.74-.33-1.47-.52-2.18h0Z" style="fill: #f4cb3c;"/>
    <path d="M231.96,151.34c.17-.67,.23-1.05,.23-1.05,0,0-1.29,.69-3.34,1.79-2,1.11-4.63,2.64-7.11,4.43-2.58,1.75-5.11,3.74-6.76,6.03-.4,.58-.82,1.15-1.15,1.75-.34,.6-.62,1.22-.81,1.87-.41,1.3-.52,2.7-.26,4.23,3.06,.89,5.88,.21,8.42-1.42,.63-.4,1.25-.87,1.85-1.37,.58-.51,1.18-1.05,1.68-1.66,1.03-1.21,1.98-2.56,2.83-3.93,1.76-2.73,2.83-5.71,3.59-7.94,.37-1.12,.66-2.06,.84-2.71v-.02h-.01Z" style="fill: #f4cb3c;"/>
    <path d="M205.44,167.85c1.22-.86,2.1-1.93,2.69-3.14,.3-.59,.52-1.23,.69-1.88,.16-.66,.28-1.33,.28-2.03,.02-2.81-.79-5.77-2.04-8.4-1.33-2.64-2.95-4.92-4.24-6.51-.66-.8-1.21-1.43-1.65-1.86-.42-.43-.68-.67-.68-.67,0,0-.06,.29-.14,.81-.11,.51-.28,1.25-.43,2.15-.34,1.8-.49,4.26-.66,6.89-.05,1.32,0,2.69,.18,4.05,.05,.35,.1,.69,.15,1.03s.1,.67,.15,1.01c.12,.67,.29,1.33,.5,1.98,.84,2.59,2.43,4.98,5.21,6.58h-.01Z" style="fill: #f4cb3c;"/>
    <path d="M225.14,132.01c-.52,.57-1.03,1.16-1.51,1.76-.48,.59-.97,1.2-1.46,1.81-.94,1.23-1.75,2.48-2.34,3.76-.3,.64-.52,1.29-.72,1.95-.22,.65-.38,1.31-.45,1.99-.15,1.34,0,2.73,.55,4.18,3.17,.3,5.82-.92,8.01-3.03,.54-.53,1.06-1.11,1.55-1.74,.47-.63,.87-1.31,1.27-2.02,.78-1.42,1.44-2.95,2-4.5,.3-.77,.49-1.56,.68-2.34,.18-.77,.35-1.53,.49-2.28,.28-1.48,.52-2.87,.6-4.06,.14-2.39,.1-3.97,.1-3.97,0,0-1.17,.98-2.81,2.54-1.59,1.57-3.9,3.66-5.97,5.96h0Z" style="fill: #f4cb3c;"/>
    <path d="M213.68,142.2c.18-.64,.28-1.3,.32-1.97,.02-.67-.08-1.36-.21-2.04-.26-1.36-.74-2.72-1.37-4.01-.16-.32-.33-.64-.49-.96-.19-.32-.4-.62-.6-.93-.42-.61-.87-1.2-1.32-1.76-.91-1.13-1.88-2.14-2.82-3.02-.45-.44-.94-.85-1.42-1.23-.47-.37-.92-.71-1.34-1.01-1.68-1.21-2.86-1.86-2.86-1.86,0,0-.02,1.15,.17,2.9,.07,.44,.09,.91,.12,1.42,.04,.51,.09,1.05,.16,1.61,.13,1.12,.38,2.33,.62,3.58,.21,1.25,.52,2.54,.98,3.81,.22,.63,.48,1.26,.77,1.87,.26,.61,.54,1.21,.88,1.79,1.33,2.31,3.35,4.32,6.38,5.36,1.04-1.06,1.69-2.27,2.05-3.55h-.02Z" style="fill: #f4cb3c;"/>
    <path d="M219.36,115.79c-.32,1.39-.41,2.74-.2,4.07,.1,.66,.31,1.32,.54,1.97,.22,.65,.54,1.3,.95,1.94,3.15-.45,5.59-2.25,7.09-4.85,.78-1.29,1.38-2.78,1.86-4.35,.42-1.57,.63-3.22,.77-4.87,.06-.82,.11-1.65,.12-2.45-.03-.8-.07-1.58-.12-2.33-.11-1.51-.28-2.91-.45-4.09-.48-2.34-.93-3.85-.93-3.85,0,0-.87,1.24-2.06,3.17-.59,.95-1.28,2.08-2.04,3.32-.74,1.24-1.5,2.57-2.21,3.94-.67,1.36-1.42,2.78-2,4.18-.6,1.41-1.03,2.81-1.3,4.2h-.02Z" style="fill: #f4cb3c;"/>
    <path d="M213.32,115.39c-.57-1.24-1.43-2.42-2.37-3.49-.48-.54-.98-1.05-1.5-1.54s-1.14-.93-1.71-1.36c-2.37-1.68-4.74-2.88-6.73-3.6-1.92-.72-3.23-1.04-3.23-1.04,0,0,.28,1.1,.91,2.71,.27,.82,.58,1.78,1.02,2.8,.2,.51,.44,1.04,.7,1.58,.25,.54,.47,1.11,.75,1.66,.52,1.12,1.18,2.25,1.93,3.34,.67,1.09,1.48,2.14,2.44,3.08,1.96,1.85,4.26,3.32,7.45,3.62,.39-.63,.69-1.27,.9-1.92,.21-.66,.26-1.32,.28-1.97,0-1.31-.31-2.62-.83-3.87h0Z" style="fill: #f4cb3c;"/>
    <path d="M217.67,72.87s-.52,1.38-1.26,3.55c-.74,2.17-1.58,5-2.36,8.02-.38,1.5-.64,3.01-.87,4.51-.23,1.51-.34,2.99-.23,4.37,.07,.69,.12,1.38,.25,2.04,.14,.67,.33,1.31,.59,1.92,.27,.61,.6,1.19,1.02,1.75,.39,.56,.86,1.11,1.42,1.62,1.48-.62,2.67-1.52,3.61-2.62,.96-1.11,1.56-2.4,2-3.84,.22-.72,.38-1.48,.51-2.26,.1-.78,.19-1.59,.18-2.38,0-1.61-.18-3.27-.43-4.88-.64-3.18-1.66-6.21-2.67-8.32-.48-1.07-.91-1.95-1.22-2.56-.33-.59-.53-.92-.53-.92h-.01Z" style="fill: #f4cb3c;"/>
    <path d="M208.19,95.33c-.3-.59-.65-1.16-1.11-1.67-.89-1.04-1.96-1.97-3.14-2.77-1.18-.8-2.55-1.43-3.85-1.96-.66-.26-1.33-.5-1.98-.71s-1.33-.37-1.97-.51c-1.27-.29-2.45-.48-3.46-.61-1.01-.12-1.84-.19-2.44-.21-.61-.03-.95-.03-.95-.03,0,0,.14,.25,.42,.67,.26,.43,.61,1.05,1.1,1.78,.24,.36,.5,.75,.8,1.16,.15,.2,.31,.42,.47,.63,.14,.22,.3,.44,.46,.67,.64,.9,1.39,1.85,2.24,2.78,.78,.96,1.68,1.89,2.67,2.75,.25,.22,.52,.42,.76,.63,.25,.21,.5,.41,.76,.61,.52,.39,1.06,.75,1.64,1.08,1.13,.66,2.44,1.17,3.77,1.46,1.33,.3,2.78,.37,4.36,.1,.22-.7,.35-1.4,.38-2.08,0-.66-.08-1.32-.24-1.95s-.4-1.24-.69-1.83h0Z" style="fill: #f4cb3c;"/>
    <path d="M206.19,79.53c2.55-1.91,3.72-4.59,3.91-7.59,.08-1.48-.09-3.04-.42-4.61-.34-1.56-.88-3.08-1.5-4.57-.62-1.48-1.39-2.84-2.13-4.11-.74-1.26-1.54-2.35-2.21-3.28-.67-.94-1.29-1.66-1.74-2.17-.43-.49-.69-.77-.69-.77,0,0-.24,1.48-.48,3.69-.13,1.13-.27,2.44-.37,3.84-.05,.71-.1,1.43-.12,2.17-.04,.75-.08,1.52-.09,2.29-.03,3.04,.1,6.2,.91,8.85,.39,1.35,.95,2.56,1.77,3.61,.78,1.07,1.8,1.98,3.16,2.67v-.02h0Z" style="fill: #f4cb3c;"/>
    <path d="M195.73,74.22c-2.19-1.63-5.05-2.6-7.9-3.01-1.4-.23-2.82-.31-4.13-.32-1.31,0-2.5,.05-3.53,.15-2.06,.21-3.38,.49-3.38,.49,0,0,.18,.22,.54,.59,.35,.37,.9,.87,1.5,1.5,.63,.63,1.42,1.31,2.27,2.06,.83,.75,1.81,1.51,2.83,2.25,1.01,.76,2.13,1.47,3.29,2.08,1.14,.64,2.35,1.18,3.65,1.53,2.53,.74,5.31,.86,8.26-.43,.07-1.46-.22-2.78-.81-3.95-.63-1.14-1.53-2.12-2.59-2.95h0Z" style="fill: #f4cb3c;"/>
  </g>
  <g>
    <path d="M136.1,137.44h-20.58l-1.24-4.05h20.18l9.67-4.86L108.2,57.05h-1.42l-35.71,71.8,10.23,4.53h20.5l-1.22,4.05h-20.8l-10.64-4.71-22.72,45.68,58.18,.18v-21.89h-32.05l.64-1.72h69.44l.64,1.72h-31.68v21.91l57.79,.18-23.31-46.37-9.99,5.02h.02Zm-45.49,33.11l-23.24,.03,.7-1.86h23.1l-.55,1.82h0Zm2.55-8.43l-.44,1.47h-22.72l.55-1.47h22.61Zm-10.9-31.25l13.28-35.43h24.88l13.22,35.43h-20.13l-4.99-16.29h-1.04l-4.91,16.29h-20.31Zm-3.55,9.47h20.71l-.27,1.87h17.82l-.57-1.87h20.77l1.55,4.15h-61.56l1.56-4.15h-.01Zm-4.1,10.94l1.26-3.36h64.13l1.26,3.36H74.61Zm48.47,10.84h22.22l.55,1.47h-22.32s-.45-1.47-.45-1.47Zm25.39,8.48l-22.8-.03-.68-2.2h22.64l.83,2.24h0Z" style="fill: none;"/>
    <path d="M109.26,38.68h-3.57L32.18,185.08l1.79,2.9H180.99l1.79-2.9L109.26,38.68Zm2.34,139.93v-21.91h31.68l-.64-1.72H73.2l-.64,1.72h32.05v21.89l-58.18-.18,22.72-45.68,10.64,4.71h20.8l1.22-4.05h-20.5l-10.23-4.53L106.78,57.05h1.42l35.93,71.48-9.67,4.86h-20.18l1.24,4.05h20.58l9.99-5.02,23.31,46.37-57.79-.18h-.01Z" style="fill: #1d539c;"/>
    <polygon points="107.48 114.54 108.51 114.54 113.5 130.83 133.64 130.83 120.42 95.41 95.53 95.41 82.26 130.83 102.57 130.83 107.48 114.54" style="fill: #1d539c;"/>
    <polygon points="137.17 140.3 116.4 140.3 116.97 142.18 99.15 142.18 99.42 140.3 78.71 140.3 77.15 144.45 138.72 144.45 137.17 140.3" style="fill: #1d539c;"/>
    <polygon points="75.87 147.88 74.61 151.25 141.25 151.25 140 147.88 75.87 147.88" style="fill: #1d539c;"/>
    <polygon points="69.99 163.56 92.71 163.56 93.15 162.09 70.54 162.09 69.99 163.56" style="fill: #1d539c;"/>
    <polygon points="67.36 170.57 90.61 170.53 91.16 168.71 68.06 168.71 67.36 170.57" style="fill: #1d539c;"/>
    <polygon points="145.3 162.09 123.07 162.09 123.52 163.56 145.84 163.56 145.3 162.09" style="fill: #1d539c;"/>
    <polygon points="125.66 170.53 148.46 170.57 147.63 168.33 124.98 168.33 125.66 170.53" style="fill: #1d539c;"/>
  </g>
  <g>
    <path d="M133.59,122.84s-.02,0-.05-.03c-6.61,6.81-7.13,17.96,.03,25.12h0s.02,.03,.03,.04c7.23,7.2,18.51,6.59,25.29-.19,.23-.23,3.83-3.82,8.97-8.94l-25.16-25.16c-5.22,5.24-8.88,8.92-9.11,9.16h0Z" style="fill: none;"/>
    <path d="M137.6,153.06c8.05,4.62,14.35,1.24,14.35,1.24-7.66,2.53-14.35-1.24-14.35-1.24Z" style="fill: #f4cb3c;"/>
    <path d="M137.6,153.06c8.05,4.62,14.35,1.24,14.35,1.24-7.66,2.53-14.35-1.24-14.35-1.24Z" style="fill: #f4cb3c; isolation: isolate; opacity: .33;"/>
    <path d="M141.95,112.92l-.41-.41c-4.06,4.08-6.77,6.8-6.77,6.8-1.39,1.57-1.61,2.48-1.53,2.98,.22-.51,.64-1.16,1.38-2,0,0,2.95-2.96,7.33-7.37Z" style="fill: #f4cb3c;"/>
    <path d="M141.95,112.92l-.41-.41c-4.06,4.08-6.77,6.8-6.77,6.8-1.39,1.57-1.61,2.48-1.53,2.98,.22-.51,.64-1.16,1.38-2,0,0,2.95-2.96,7.33-7.37Z" style="fill: #f4cb3c; isolation: isolate; opacity: .15;"/>
    <path d="M180.21,74.46s.05-.05,.07-.08c.02-.02,.04-.04,.04-.04,0-.01,.04-.03,.07-.05-.52,.05-.98,.14-1.08,.24,0,0-.02,.02-.04,.04-.02,.03-.05,.05-.07,.08,0,0-.95,.96-2.54,2.55-3.62,3.64-13,13.08-21.98,22.09l.41,.41c9.17-9.21,18.75-18.84,22.48-22.6,1.64-1.65,2.63-2.64,2.63-2.64h0Z" style="fill: #f4cb3c;"/>
    <path d="M180.21,74.46s.05-.05,.07-.08c.02-.02,.04-.04,.04-.04,0-.01,.04-.03,.07-.05-.52,.05-.98,.14-1.08,.24,0,0-.02,.02-.04,.04-.02,.03-.05,.05-.07,.08,0,0-.95,.96-2.54,2.55-3.62,3.64-13,13.08-21.98,22.09l.41,.41c9.17-9.21,18.75-18.84,22.48-22.6,1.64-1.65,2.63-2.64,2.63-2.64h0Z" style="fill: #f4cb3c; isolation: isolate; opacity: .15;"/>
    <path d="M155.85,100.44l.03,.03c12.65-12.68,25.97-26.02,25.97-26.02,.04-.04,.07-.08,.11-.12,0-.01-.02-.02-.04-.03-.03,.04-.07,.08-.1,.12,0,0-13.34,13.37-25.97,26.03h0Z" style="fill: #f4cb3c; isolation: isolate; opacity: .32;"/>
    <path d="M142.71,113.68l-.03-.03c-5.12,5.13-8.71,8.73-8.94,8.97l-.19,.19,.05,.03c.23-.24,3.89-3.93,9.11-9.16Z" style="fill: #f4cb3c; isolation: isolate; opacity: .32;"/>
    <path d="M142.68,113.65l-.73-.73c-4.38,4.4-7.33,7.37-7.33,7.37-.74,.83-1.16,1.49-1.38,2,.05,.31,.23,.47,.31,.53l.19-.19c.23-.23,3.82-3.83,8.94-8.97h0Z" style="fill: #f4cb3c;"/>
    <path d="M142.68,113.65l-.73-.73c-4.38,4.4-7.33,7.37-7.33,7.37-.74,.83-1.16,1.49-1.38,2,.05,.31,.23,.47,.31,.53l.19-.19c.23-.23,3.82-3.83,8.94-8.97h0Z" style="fill: #f4cb3c; isolation: isolate; opacity: .32;"/>
    <path d="M180.4,74.29s-.06,.03-.07,.05c0,0-.02,.02-.04,.04-.02,.03-.05,.05-.07,.08,0,0-.99,.99-2.63,2.64-3.74,3.76-13.31,13.39-22.48,22.6l.75,.75c12.63-12.66,25.97-26.03,25.97-26.03,.04-.04,.07-.08,.1-.12-.17-.08-.88-.07-1.52,0h0Z" style="fill: #f4cb3c;"/>
    <path d="M180.4,74.29s-.06,.03-.07,.05c0,0-.02,.02-.04,.04-.02,.03-.05,.05-.07,.08,0,0-.99,.99-2.63,2.64-3.74,3.76-13.31,13.39-22.48,22.6l.75,.75c12.63-12.66,25.97-26.03,25.97-26.03,.04-.04,.07-.08,.1-.12-.17-.08-.88-.07-1.52,0h0Z" style="fill: #f4cb3c; isolation: isolate; opacity: .32;"/>
    <path d="M221.54,114.14l-26,26,.1,.1,26-26c.15-.15,.27-.32,.36-.5-.04,0-.09-.02-.14-.02-.09,.15-.19,.29-.32,.42h0Z" style="fill: #f4cb3c; isolation: isolate; opacity: .33;"/>
    <path d="M173.17,162.54c-4.11,4.25-8.95,7.27-14.11,9.09-.06,.12-.09,.22-.1,.31,5.17-1.83,10.02-4.86,14.13-9.12,.3-.31,4.06-4.08,9.37-9.39l-.1-.1c-5.21,5.22-8.9,8.91-9.19,9.21h0Z" style="fill: #f4cb3c; isolation: isolate; opacity: .33;"/>
    <path d="M173.17,162.54c.29-.3,3.97-3.99,9.19-9.21l-.55-.55c-5.2,5.2-8.87,8.88-9.16,9.18-3.74,3.87-8.09,6.72-12.73,8.59-.47,.47-.73,.82-.86,1.09,5.17-1.82,10.01-4.84,14.11-9.09h0Z" style="fill: #f4cb3c;"/>
    <path d="M173.17,162.54c.29-.3,3.97-3.99,9.19-9.21l-.55-.55c-5.2,5.2-8.87,8.88-9.16,9.18-3.74,3.87-8.09,6.72-12.73,8.59-.47,.47-.73,.82-.86,1.09,5.17-1.82,10.01-4.84,14.11-9.09h0Z" style="fill: #f4cb3c; isolation: isolate; opacity: .33;"/>
    <path d="M220.81,113.77c-1.98,1.98-14.19,14.19-25.82,25.82l.55,.55,26-26c.13-.13,.23-.27,.32-.42-.27-.03-.62-.03-1.05,.05h0Z" style="fill: #f4cb3c;"/>
    <path d="M220.81,113.77c-1.98,1.98-14.19,14.19-25.82,25.82l.55,.55,26-26c.13-.13,.23-.27,.32-.42-.27-.03-.62-.03-1.05,.05h0Z" style="fill: #f4cb3c; isolation: isolate; opacity: .33;"/>
    <path d="M172.65,161.95c.29-.3,3.96-3.97,9.16-9.18l-.5-.5c-5.24,5.24-8.96,8.97-9.25,9.27-3.05,3.16-6.52,5.61-10.24,7.37-.86,.65-1.47,1.19-1.9,1.62,4.65-1.87,8.99-4.72,12.73-8.59h0Z" style="fill: #f4cb3c;"/>
    <path d="M172.65,161.95c.29-.3,3.96-3.97,9.16-9.18l-.5-.5c-5.24,5.24-8.96,8.97-9.25,9.27-3.05,3.16-6.52,5.61-10.24,7.37-.86,.65-1.47,1.19-1.9,1.62,4.65-1.87,8.99-4.72,12.73-8.59h0Z" style="fill: #f4cb3c; isolation: isolate; opacity: .14;"/>
    <path d="M220.81,113.77c-.44,.08-.96,.25-1.58,.56-.05,.06-.1,.13-.16,.18,0,0-12.48,12.47-24.58,24.58l.5,.5c11.63-11.63,23.84-23.84,25.82-25.82h0Z" style="fill: #f4cb3c;"/>
    <path d="M220.81,113.77c-.44,.08-.96,.25-1.58,.56-.05,.06-.1,.13-.16,.18,0,0-12.48,12.47-24.58,24.58l.5,.5c11.63-11.63,23.84-23.84,25.82-25.82h0Z" style="fill: #f4cb3c; isolation: isolate; opacity: .14;"/>
    <path d="M208.36,118.53c1.18-1.18,1.05-2.75,.18-4.63-.71-1.56-.7-2.48,.07-3.25,.85-.85,2.09-.79,3.2,.33,.75,.75,1.21,1.69,1.39,2.49l1.2-.63c-.15-.75-.79-1.89-1.6-2.7-1.99-1.99-4.08-1.8-5.38-.5-1.24,1.24-1.21,2.64-.34,4.61,.71,1.61,.84,2.51,.05,3.3-.57,.57-1.7,.83-2.85-.32-.76-.76-1.09-1.56-1.19-1.99l-1.19,.59c.15,.58,.59,1.41,1.44,2.26,1.64,1.64,3.7,1.75,5.01,.44h.01Z" style="fill: #e62128;"/>
    <path d="M165.13,72.27c1.31-1.31,2.31-2.36,3.34-3.59l.05,.02c-.47,1.25-.86,2.64-1.24,4.24l-1.58,6.95,1.2,1.2,8.43-8.43-1.02-1.02-3.6,3.6c-1.4,1.4-2.4,2.43-3.4,3.55l-.05-.03c.5-1.33,.9-2.85,1.25-4.38l1.6-6.95-1.1-1.1-8.43,8.43,1.03,1.03,3.53-3.53h0Z" style="fill: #e62128;"/>
    <path d="M194.99,139.59l-.08-.08c-.23-.23-.23-.6,0-.83l24.17-24.17s.06-.06,.08-.09c.05-.06,.11-.11,.19-.15,.57-.27,1.05-.42,1.47-.5,.25-.05,.47-.07,.67-.07,.26,0,.49-.16,.56-.41,.2-.69,.02-1.48-.53-2.03l-11.53-11.53c-.8-.8-2.09-.82-2.88-.03,0,0-13.08,13.05-25.62,25.55-.23,.23-.6,.23-.83,0l-24.78-24.78-.03-.03-.75-.75h0c-.23-.23-.23-.6,0-.83,8.85-8.89,18.01-18.09,21.57-21.68,1.59-1.59,2.54-2.55,2.54-2.55,.02-.02,.05-.05,.07-.08,.02-.02,.03-.03,.04-.04,.1-.1,.57-.18,1.08-.24,.44-.04,.91-.06,1.22-.04,.22,.01,.43-.1,.54-.3,.41-.77,.28-1.75-.38-2.41l-11.53-11.53c-.8-.8-2.09-.82-2.88-.03,0,0-13.04,13.04-25.58,25.59-.23,.23-.6,.23-.83,0l-7.92-7.92c-.23-.23-.23-.6,0-.83l2.64-2.64-.03-.03,7.49-7.49c1.17-1.17,1.17-3.06,0-4.23l-7.73-7.73c-1.17-1.17-3.06-1.17-4.23,0l-24.46,24.46c-.08,.08-.14,.16-.21,.24-.02,.02-.03,.04-.05,.06l-1.3,1.3c-.09,.09-.14,.2-.16,.32l-2.71,16.19c-.03,.17,.02,.35,.14,.48l4.1,4.71c.22,.26,.61,.27,.85,.03l9.62-9.62,2.03-2.03c.23-.23,.6-.23,.83,0l7.91,7.91c.23,.23,.23,.6,0,.83-5,4.99-8.5,8.49-8.8,8.78-15.14,14.62-14.4,38.9,.34,53.93,.09,.09,.18,.19,.27,.28l.04-.05c10.74,10.53,26.03,13.76,39.21,9.21,.13-.04,.24-.13,.31-.25,.15-.24,.39-.54,.77-.92,.43-.43,1.02-.95,1.85-1.58,.03-.02,.07-.05,.11-.06,3.69-1.76,7.15-4.2,10.18-7.35,.28-.29,3.82-3.83,8.84-8.86,.23-.23,.6-.23,.83,0l.08,.08,.55,.55,.1,.1,9.01,9.01c.23,.23,.6,.23,.83,0l12.36-12.36c.23-.23,.23-.6,0-.83l-9.01-9.01-.1-.1-.55-.55h0Zm7.52-24.04c.3-.15,.66-.02,.79,.29,.18,.41,.49,.92,.99,1.41,1.15,1.15,2.28,.9,2.85,.32,.79-.79,.66-1.69-.05-3.3-.88-1.98-.9-3.38,.34-4.61,1.3-1.3,3.39-1.49,5.38,.5,.65,.65,1.18,1.5,1.45,2.2,.11,.28-.02,.59-.28,.72l-.15,.08c-.31,.16-.69,.02-.81-.3-.24-.64-.64-1.3-1.2-1.86-1.11-1.11-2.35-1.18-3.2-.33-.78,.78-.79,1.69-.07,3.25,.87,1.87,1,3.45-.18,4.63-1.31,1.31-3.38,1.2-5.01-.44-.62-.62-1.02-1.23-1.25-1.74-.13-.28,0-.62,.28-.76l.13-.06h-.01Zm-33.09-48.78l.46,.46c.14,.14,.2,.35,.16,.54l-1.53,6.64c-.35,1.53-.75,3.05-1.25,4.38l.05,.03c1-1.13,2-2.15,3.4-3.55l3.19-3.19c.23-.23,.6-.23,.83,0l.2,.2c.23,.23,.23,.6,0,.83l-7.6,7.6c-.23,.23-.6,.23-.83,0l-.56-.56c-.14-.14-.2-.35-.16-.54l1.5-6.64c.38-1.6,.76-2.99,1.24-4.24l-.05-.02c-1.03,1.23-2.03,2.28-3.34,3.59l-3.11,3.11c-.23,.23-.6,.23-.83,0l-.2-.2c-.23-.23-.23-.6,0-.83l7.6-7.6c.23-.23,.6-.23,.83,0h0Zm-31.81,86.28s6.68,3.77,14.35,1.24c0,0-6.3,3.39-14.35-1.24Zm21.29-5.28c-6.78,6.78-18.05,7.39-25.29,.19l-.03-.03h0c-7.04-7.06-6.65-17.97-.34-24.8,.16-.17,.18-.41,.08-.62-.03-.07-.06-.15-.07-.24-.08-.5,.14-1.4,1.52-2.97,0-.01,.02-.02,.03-.03,.2-.2,2.67-2.68,6.34-6.37,.23-.23,.6-.23,.83,0h0l.73,.73,.03,.03,24.74,24.74c.23,.23,.23,.6,0,.83-4.91,4.9-8.33,8.31-8.55,8.53h-.02Z" style="fill: #f4cb3c;"/>
  </g>
</svg>