<?xml version="1.0" encoding="UTF-8"?>
<svg id="_图层_1" data-name="图层 1" xmlns="http://www.w3.org/2000/svg" viewBox="0 0 150.6 180.49">
  <g>
    <path d="M103.92,98.76h-20.58l-1.24-4.05h20.18l9.67-4.86L76.02,18.37h-1.42L38.89,90.18l10.23,4.53h20.5l-1.22,4.05h-20.8l-10.64-4.71-22.72,45.68,58.18,.18v-21.89H40.38l.64-1.72H110.47l.64,1.72h-31.68v21.91l57.79,.18-23.31-46.37-9.99,5.02Zm-45.49,33.09l-23.24,.03,.7-1.86h23.1l-.55,1.82Zm2.55-8.45l-.44,1.47h-22.72l.55-1.47h22.61Zm-10.9-31.25l13.28-35.43h24.88l13.22,35.43h-20.13l-4.99-16.29h-1.04l-4.91,16.29h-20.31Zm-3.55,9.47h20.71l-.27,1.87h17.82l-.57-1.87h20.77l1.55,4.15H44.98l1.56-4.15Zm-4.1,10.94l1.26-3.36H107.82l1.26,3.36H42.43Zm48.47,10.84h22.22l.55,1.47h-22.32l-.45-1.47Zm25.39,8.48l-22.8-.03-.68-2.2h22.64l.83,2.24Z" style="fill: none;"/>
    <path d="M77.09,0h-3.57L0,146.4l1.79,2.9H148.81l1.79-2.9L77.09,0Zm2.34,139.93v-21.91h31.68l-.64-1.72H41.03l-.64,1.72h32.05v21.89l-58.18-.18,22.72-45.68,10.64,4.71h20.8l1.22-4.05h-20.5l-10.23-4.53L74.6,18.37h1.42l35.93,71.48-9.67,4.86h-20.18l1.24,4.05h20.58l9.99-5.02,23.31,46.37-57.79-.18Z" style="fill: #1d539c;"/>
    <polygon points="75.3 75.87 76.34 75.87 81.32 92.16 101.46 92.16 88.24 56.73 63.36 56.73 50.08 92.16 70.39 92.16 75.3 75.87" style="fill: #1d539c;"/>
    <polygon points="104.99 101.62 84.22 101.62 84.8 103.5 66.97 103.5 67.24 101.62 46.53 101.62 44.98 105.77 106.54 105.77 104.99 101.62" style="fill: #1d539c;"/>
    <polygon points="43.69 109.2 42.43 112.57 109.07 112.57 107.82 109.2 43.69 109.2" style="fill: #1d539c;"/>
    <polygon points="37.81 124.88 60.53 124.88 60.98 123.41 38.37 123.41 37.81 124.88" style="fill: #1d539c;"/>
    <polygon points="35.19 131.89 58.43 131.86 58.98 130.03 35.88 130.03 35.19 131.89" style="fill: #1d539c;"/>
    <polygon points="113.12 123.41 90.9 123.41 91.35 124.88 113.67 124.88 113.12 123.41" style="fill: #1d539c;"/>
    <polygon points="93.48 131.86 116.28 131.89 115.45 129.65 92.81 129.65 93.48 131.86" style="fill: #1d539c;"/>
  </g>
  <g>
    <path d="M36.04,163.04l3.57,5.92-6.97,11.5h-7.16l10.56-17.42Zm20,17.42h-7.16l-1.48-2.45-10.19-16.88,3.56-5.87,15.28,25.2Z" style="fill: #231815;"/>
    <path d="M67.69,175.3l3.08,3.08-.31,.24c-1.54,1.2-3.39,1.83-5.34,1.83-2.33,0-4.52-.91-6.17-2.55-1.65-1.65-2.55-3.84-2.55-6.17,0-1.96,.63-3.8,1.83-5.35l.24-.31,3.08,3.08-.15,.24c-.44,.7-.68,1.51-.68,2.34,0,1.17,.46,2.28,1.29,3.1s1.93,1.29,3.1,1.29c.83,0,1.65-.23,2.34-.68l.24-.15Zm6.14-3.57c0,1.96-.63,3.8-1.83,5.35l-.24,.31-3.08-3.08,.15-.24c.44-.7,.68-1.51,.68-2.34,0-1.17-.46-2.27-1.29-3.1-.83-.83-1.93-1.29-3.1-1.29-.84,0-1.65,.23-2.34,.68l-.24,.15-3.08-3.08,.31-.24c1.54-1.2,3.39-1.83,5.35-1.83,2.33,0,4.52,.91,6.16,2.55s2.55,3.84,2.55,6.16Z" style="fill: #231815;"/>
    <path d="M102.16,155.72v24.74h-6.12v-10.9l-6.24,6.25-6.24-6.25h0s-6.12-6.12-6.12-6.12v-7.72h.96l11.41,11.41,11.41-11.41h.96Zm-24.74,10.52l6.12,6.13v8.09h-6.12v-14.22Z" style="fill: #231815;"/>
    <path d="M109.94,173.91l-5.27-5.27v-5.63h14.55v4.32h-9.76l2.25,2.26h7.51v4.32h-9.29Zm9.29,2.22v4.32h-14.55v-9.86l4.32,4.32v1.22h10.23Z" style="fill: #231815;"/>
  </g>
</svg>