<?xml version="1.0" encoding="UTF-8"?>
<svg id="_图层_1" data-name=" 图层 1" xmlns="http://www.w3.org/2000/svg" viewBox="0 0 514 514">
  <circle cx="257" cy="257" r="257" style="fill: #ff0316;"/>
  <g>
    <path d="M197.78,431.66c-2.78-2.1-5.34-3.6-8.04-4.56-2.72-.96-5.52-1.46-8.46-1.6-5.88-.26-12.3,.84-18.44,2.32-6.14,1.5-11.98,3.34-16.36,4.84-4.34,1.44-7.18,2.58-7.18,2.58,0,0,2.78,1.62,7.24,3.52s10.64,4.06,17.38,5.24c6.68,1.16,14,1.32,20.36-.52,6.32-1.8,11.72-5.68,13.5-11.8h0v-.02Z" style="fill: #f2f2f2;"/>
    <path d="M179,404.42c2.38,5.36,5.86,10.62,10.42,14.04,2.26,1.68,4.8,2.96,7.54,3.5,2.72,.52,5.62,.38,8.46-.8,.14-6.42-1.6-11.5-4.36-15.94-2.76-4.42-6.66-8.24-10.7-11.54-4.04-3.28-8.18-6.02-11.3-7.98-3.12-1.96-5.24-3.1-5.24-3.1,0,0,0,.7,.14,1.9,.12,1.2,.32,2.92,.66,4.98,.7,4.1,2,9.62,4.42,14.98l-.04-.04Z" style="fill: #f2f2f2;"/>
    <path d="M134.82,418.74c6.14-.3,11.6-2.66,15.42-7.8-3.04-5.46-7.68-8.4-13.24-10.12-5.54-1.7-12.02-2.16-18.38-2.36-6.34-.18-12.64-.04-17.36,0-4.86,.1-7.9,.14-7.9,.14,0,0,.58,.66,1.68,1.72,1.1,1.02,2.7,2.52,4.68,4.14,4,3.3,9.66,7.16,15.9,9.96,6.24,2.82,13.04,4.62,19.2,4.32h0Z" style="fill: #f2f2f2;"/>
    <path d="M146.52,394.48c3.5,4.44,8.36,7.34,14.42,7.02,2.46-5.9,2.04-11.54,.36-16.72-1.66-5.16-4.62-9.9-7.6-14.04-3-4.12-6.06-7.66-8.32-10.18-1.1-1.26-2.04-2.28-2.72-2.96-.62-.7-1-1.08-1-1.08,0,0-.2,.62-.52,1.78-.3,1.14-.64,2.78-.96,4.78-.66,4.02-.94,9.54-.08,15.32,.84,5.74,2.9,11.64,6.4,16.08h.02Z" style="fill: #f2f2f2;"/>
    <path d="M71.24,350.38c-4.36-1.36-7.18-2.16-7.18-2.16,0,0,.26,.72,.82,1.94,.58,1.2,1.46,2.9,2.58,4.9s2.5,4.32,4.1,6.76c.8,1.22,1.64,2.46,2.54,3.72l.72,.96,.88,1.16c.62,.78,1.24,1.56,1.86,2.34,5.1,6.06,11.38,10.7,17.56,12.64,6.18,1.98,12.18,1.34,17.32-2.5-1.44-6.14-4.9-10.32-9.56-13.96-1.14-.94-2.42-1.76-3.68-2.64-1.28-.86-2.64-1.7-4.02-2.52-1.38-.88-2.8-1.7-4.26-2.52-1.38-.76-2.72-1.42-4.12-2.08-5.52-2.62-11.22-4.62-15.56-6v-.04h0Z" style="fill: #f2f2f2;"/>
    <path d="M113.94,361.3c1.64,5.3,5.48,9.66,11.28,11,4.06-4.96,5.34-10.38,5.66-15.5,.28-5.14-.36-9.98-.92-14.06-.2-1.72-.88-4.64-1.52-6.92-.66-2.34-1.38-4.46-2.04-6.22-.66-1.78-1.28-3.22-1.7-4.22-.36-1.02-.6-1.6-.6-1.6,0,0-.42,.58-1.08,1.62-.7,1.04-1.54,2.52-2.52,4.36-1.92,3.68-4.26,8.84-5.86,14.54-.42,1.44-.76,2.9-1.04,4.38-.28,1.38-.48,2.8-.62,4.22-.06,1.42,0,2.84,.12,4.28,.14,1.42,.48,2.78,.84,4.12h0Z" style="fill: #f2f2f2;"/>
    <path d="M64.58,328.84c1,1.24,2.18,2.32,3.38,3.34,1.18,1.02,2.4,1.94,3.68,2.76,5.06,3.26,10.7,4.62,16.84,2.84,.52-3.06,.28-5.86-.52-8.46-.4-1.28-.96-2.54-1.64-3.74-.66-1.2-1.5-2.34-2.28-3.5-3.3-4.58-8.38-8.54-13.5-12.06-4.98-3.56-10.22-6.64-14.22-8.86-4.1-2.2-6.68-3.56-6.68-3.56,0,0,.12,.78,.46,2.1,.36,1.32,.9,3.18,1.66,5.42,1.52,4.44,3.64,10.42,7.18,15.88,1.7,2.74,3.6,5.46,5.66,7.86h-.02v-.02Z" style="fill: #f2f2f2;"/>
    <path d="M97.72,326.44c1.18,2.4,2.94,4.54,5.38,6.26,5.56-3.18,8.76-7.96,10.44-13.14,.42-1.3,.74-2.62,1-3.98,.12-.66,.22-1.34,.32-2,.08-.68,.2-1.36,.3-2.06,.36-2.74,.44-5.48,.36-8.12-.36-5.24-.66-10.2-1.34-13.78-.3-1.8-.64-3.28-.86-4.3-.18-1.04-.28-1.6-.28-1.6,0,0-.52,.46-1.36,1.34-.9,.86-2,2.12-3.3,3.7-2.6,3.2-5.86,7.76-8.48,13.06-2.5,5.24-4.12,11.16-4.08,16.78,0,1.42,.2,2.76,.54,4.06,.32,1.32,.78,2.58,1.38,3.78h-.02Z" style="fill: #f2f2f2;"/>
    <path d="M53.9,278.34c.78,1.4,1.6,2.78,2.54,4.04,.98,1.24,2.02,2.4,3.1,3.46,4.38,4.24,9.66,6.68,16.02,6.08,1.08-2.9,1.4-5.7,1.1-8.38-.16-1.34-.46-2.66-.88-3.96-.42-1.32-.84-2.62-1.46-3.88-1.18-2.58-2.8-5.08-4.68-7.54-.98-1.22-1.94-2.42-2.88-3.64-.98-1.18-1.98-2.36-3-3.5-4.16-4.58-8.78-8.78-11.96-11.92-3.28-3.12-5.62-5.1-5.62-5.1,0,0-.08,3.18,.2,7.96,.16,2.38,.66,5.16,1.2,8.12,.28,1.48,.6,3.02,.98,4.58,.36,1.54,.74,3.12,1.34,4.66,1.12,3.1,2.46,6.16,4.02,9h-.02v.02Z" style="fill: #f2f2f2;"/>
    <path d="M90.7,288.52c6.06-2.1,10.12-6.12,12.78-10.74,.68-1.16,1.24-2.36,1.74-3.58,.58-1.22,1.1-2.48,1.54-3.74,.88-2.52,1.52-5.1,1.94-7.6,.48-2.48,1-4.92,1.24-7.16,.14-1.12,.22-2.2,.3-3.22,.06-1.02,.1-1.98,.22-2.86,.4-3.48,.34-5.78,.34-5.78,0,0-2.36,1.3-5.7,3.72-.84,.6-1.74,1.28-2.68,2.02-.96,.76-1.92,1.56-2.84,2.46-1.88,1.76-3.8,3.8-5.64,6.04-.92,1.12-1.78,2.3-2.64,3.52-.4,.62-.82,1.24-1.2,1.88-.36,.62-.7,1.28-1,1.92-1.26,2.58-2.24,5.28-2.76,8.02-.22,1.36-.42,2.72-.38,4.06,.06,1.34,.28,2.66,.62,3.94,.72,2.58,2.02,5,4.08,7.1h.04Z" style="fill: #f2f2f2;"/>
    <path d="M68.66,211.84c-1.42-2.72-2.94-5.38-4.44-7.86-1.54-2.5-2.92-4.76-4.08-6.66-2.38-3.84-4.12-6.34-4.12-6.34,0,0-.9,3.02-1.86,7.7-.36,2.38-.7,5.16-.92,8.18-.12,1.5-.2,3.06-.24,4.66,0,1.6,.1,3.24,.24,4.9,.28,3.28,.7,6.6,1.54,9.74,.94,3.16,2.16,6.14,3.72,8.7,3,5.2,7.86,8.8,14.18,9.7,.82-1.28,1.44-2.56,1.9-3.88,.44-1.3,.88-2.62,1.06-3.94,.44-2.66,.22-5.38-.42-8.16-.54-2.76-1.38-5.56-2.58-8.38-1.2-2.82-2.66-5.66-4.02-8.38h.04v.02Z" style="fill: #f2f2f2;"/>
    <path d="M102.96,236.06c1.92-1.86,3.52-3.96,4.88-6.16,1.48-2.18,2.82-4.42,3.86-6.66,.56-1.12,.98-2.24,1.5-3.32s.98-2.14,1.4-3.16c.86-2.04,1.46-3.96,2.04-5.6,1.26-3.24,1.78-5.42,1.78-5.42,0,0-2.6,.62-6.46,2.08-3.96,1.42-8.7,3.82-13.42,7.18-1.16,.84-2.38,1.74-3.42,2.72-1.04,.96-2.08,1.98-3.02,3.06-1.88,2.16-3.6,4.5-4.72,7-1.06,2.5-1.68,5.12-1.68,7.76,0,1.3,.12,2.62,.54,3.92,.44,1.3,1.02,2.6,1.82,3.86,6.4-.6,10.98-3.54,14.9-7.26h0Z" style="fill: #f2f2f2;"/>
    <path d="M84.34,195.08c.84-1.1,1.52-2.28,2.06-3.5s.92-2.5,1.18-3.84c.26-1.32,.36-2.7,.52-4.08,.2-2.78,0-5.72-.46-8.74s-.98-6.02-1.76-9.04c-1.54-6.04-3.22-11.7-4.7-16.04-1.5-4.34-2.52-7.1-2.52-7.1,0,0-.42,.64-1.06,1.84-.64,1.22-1.5,2.94-2.44,5.1-2.04,4.24-4.06,10.28-5.34,16.64-.52,3.24-.86,6.54-.86,9.76-.04,1.6,.12,3.22,.38,4.78,.22,1.58,.54,3.08,.98,4.52,.88,2.9,2.1,5.46,4,7.68,1.9,2.22,4.26,4,7.2,5.24,1.14-1.02,2.08-2.1,2.84-3.24h0l-.02,.02Z" style="fill: #f2f2f2;"/>
    <path d="M134.58,172.12c.54-.86,.84-1.36,.84-1.36,0,0-.7,0-1.88,.04-1.22,.04-2.88,.18-4.9,.42-2.02,.24-4.38,.64-6.94,1.22-1.26,.3-2.62,.6-3.92,1.02-1.28,.42-2.62,.88-3.94,1.4-2.62,1.06-5.36,2.34-7.72,3.92-2.34,1.6-4.5,3.46-6.28,5.54-.92,1.02-1.6,2.16-2.2,3.34-.58,1.16-1.04,2.4-1.38,3.66-.32,1.26-.48,2.58-.48,3.92,.06,1.36,.34,2.74,.78,4.16,3.14,.52,6.06,.38,8.74-.22,2.64-.6,5.24-1.6,7.52-2.9,1.16-.66,2.24-1.4,3.28-2.18,.54-.38,1.02-.8,1.5-1.22,.52-.4,1.04-.82,1.52-1.26,2-1.72,3.78-3.58,5.36-5.5,1.68-1.86,3.22-3.74,4.48-5.56,.32-.44,.62-.9,.92-1.32,.34-.44,.62-.86,.94-1.26,.58-.82,1.14-1.6,1.6-2.32,.96-1.46,1.68-2.7,2.2-3.56h-.04v.02Z" style="fill: #f2f2f2;"/>
    <path d="M101.6,156.1c2.72-1.38,4.76-3.2,6.3-5.34,1.66-2.08,2.78-4.52,3.54-7.22,1.66-5.28,1.92-11.6,1.84-17.68,0-1.54-.08-3.08-.18-4.58-.06-1.46-.14-2.92-.26-4.32-.2-2.82-.48-5.44-.74-7.68-.46-4.44-.96-7.38-.96-7.38,0,0-.52,.58-1.4,1.56-.86,1-2.1,2.44-3.46,4.34-1.36,1.88-2.96,4.04-4.46,6.56-1.46,2.52-3,5.26-4.24,8.22-1.22,2.98-2.34,6.02-3,9.14-.68,3.12-.98,6.24-.84,9.2,.38,6,2.74,11.36,7.82,15.2h.04v-.02Z" style="fill: #f2f2f2;"/>
    <path d="M146.1,152.88c2.06-1.48,4-3,5.66-4.5,1.72-1.48,3.28-2.86,4.52-4.1,1.24-1.26,2.32-2.26,3.02-3.02,.7-.72,1.08-1.16,1.08-1.16,0,0-2.64-.58-6.78-1-2.06-.2-4.42-.3-7.06-.28s-5.46,.18-8.26,.64c-5.68,.84-11.4,2.76-15.8,6-2.12,1.68-3.92,3.64-5.16,5.92-1.18,2.32-1.78,4.98-1.64,7.88,5.88,2.56,11.46,2.34,16.52,.86,2.58-.72,5.04-1.78,7.3-3.06,2.32-1.24,4.54-2.66,6.56-4.18,0,0,.04,0,.04,0Z" style="fill: #f2f2f2;"/>
    <path d="M134.78,393.54c16.74,13.9,37.16,23.4,57.2,31.48,16.4,6.64,37.42,17.46,58.84,27.54-19.26,6-38.26,10.9-53.52,13.46-2,.32,8.28,10.8,10.2,10.2,17.74-5.34,35.74-11.82,53.48-18.98,19.38,8.8,38.52,16.36,54.3,19,1.98,.32,8.16-10.22,6.16-10.56-14.94-2.5-32.28-6.94-50.34-12.6,29.76-12.5,58.4-26.62,83.16-40.1,26.88-14.64,47.06-35.44,60.34-63.08,12.3-25.58,20.96-53.88,22.24-82.32,1.76-39.38-11.46-77.98-31.96-111.16-6-9.72-12.72-19.4-20.16-28.4,.66-2.5,.74-4.92,.3-7.22-.5-2.72-1.56-5.32-3.18-7.66-3.12-4.76-8.18-8.6-13.34-11.48-5.2-2.84-10.62-4.64-14.66-5.6-2.04-.5-3.7-.78-4.88-.94-.58-.06-1.04-.12-1.34-.14h-.42s.06,.14,.18,.4c.14,.26,.32,.68,.58,1.18,.54,1.04,1.3,2.52,2.26,4.3,1.92,3.56,4.54,8.24,7.66,12.8,1.52,2.3,3.28,4.5,5.06,6.58,.9,1.02,1.86,2,2.88,2.9,.98,.92,1.98,1.78,3.06,2.54,2.18,1.46,4.46,2.68,7.04,3.34,1.94,.48,4,.7,6.2,.56,14.3,16.9,25.98,36.54,34.9,56.24,11.34,25.1,17.38,52.44,16.72,80-.7,30.04-10.72,60.54-24.18,87.24-10.48,20.76-25.76,37.7-45.28,50.34-17.46,11.28-36.62,19.76-55.68,28-14.26,6.18-31.2,12.52-48.38,18.16-36.78-12.28-75.22-28.9-101.86-43.96-13.92-7.84-26.52-17.48-36.96-29.66-10.42-12.16-17.94-26.58-23.96-41.32-11.44-27.96-18.7-56.88-16.92-87.26,2.08-35.42,15.98-69.28,35.36-98.66,4.98-7.52,10.36-15.02,16.22-22.1,2.1,.1,4.1-.12,6-.58,2.56-.64,4.84-1.86,7.04-3.34,1.06-.76,2.1-1.6,3.06-2.52,1.02-.9,1.96-1.86,2.86-2.9,1.82-2.1,3.52-4.26,5.08-6.58,3.1-4.56,5.72-9.26,7.64-12.82,.96-1.78,1.74-3.28,2.24-4.32,.26-.52,.46-.92,.6-1.18,.1-.26,.16-.4,.16-.4h-.42c-.3,0-.76,.08-1.32,.14-1.18,.16-2.86,.46-4.88,.94-4.04,.98-9.44,2.76-14.66,5.6-5.16,2.88-10.22,6.7-13.34,11.48-1.6,2.34-2.7,4.94-3.16,7.64-.44,2.26-.36,4.64,.26,7.1-13.68,16.26-25,34.98-33.78,53.72-10.82,23.18-17.36,48.24-18.36,73.86-1.12,29.4,6.88,57.58,17.94,84.56,8.88,21.7,21.56,41.42,39.72,56.48v.06h0Z" style="fill: #f2f2f2;"/>
    <path d="M350.1,446.96c6.72-1.16,12.9-3.32,17.38-5.22,4.44-1.92,7.22-3.5,7.22-3.5,0,0-2.84-1.14-7.2-2.58-4.36-1.48-10.2-3.34-16.34-4.84-6.16-1.48-12.54-2.58-18.44-2.32-2.96,.12-5.76,.62-8.46,1.6-2.72,.96-5.26,2.46-8.04,4.56,1.78,6.14,7.18,10.02,13.5,11.82,6.36,1.84,13.66,1.7,20.38,.5h0v-.02Z" style="fill: #f2f2f2;"/>
    <path d="M317.06,424.92c2.72-.52,5.22-1.8,7.52-3.48,4.54-3.42,8.02-8.66,10.42-14.02,2.4-5.36,3.7-10.88,4.4-15,.34-2.06,.54-3.78,.66-4.98,.1-1.2,.14-1.9,.14-1.9,0,0-2.12,1.14-5.24,3.08-3.12,1.96-7.26,4.7-11.32,8-4.02,3.3-7.96,7.12-10.72,11.54-2.74,4.44-4.48,9.52-4.32,15.94,2.8,1.2,5.72,1.34,8.46,.8h0v.02Z" style="fill: #f2f2f2;"/>
    <path d="M395.36,401.46c-6.36,.22-12.86,.66-18.38,2.36-5.54,1.72-10.18,4.68-13.22,10.12,3.8,5.14,9.26,7.52,15.4,7.8,6.14,.3,12.96-1.48,19.2-4.32,6.24-2.82,11.88-6.66,15.88-9.98,2-1.62,3.6-3.12,4.7-4.14,1.1-1.08,1.68-1.72,1.68-1.72,0,0-3.04-.06-7.88-.14-4.74,0-11.02-.16-17.36,0h-.02v.02Z" style="fill: #f2f2f2;"/>
    <path d="M353.04,404.48c6.04,.32,10.92-2.6,14.42-7.02,3.46-4.44,5.56-10.34,6.4-16.08,.84-5.78,.56-11.3-.1-15.32-.3-2-.66-3.64-.96-4.78-.3-1.14-.52-1.78-.52-1.78,0,0-.36,.38-1,1.08-.68,.7-1.6,1.7-2.7,2.98-2.24,2.54-5.3,6.04-8.32,10.16-2.98,4.14-5.94,8.88-7.62,14.04-1.64,5.2-2.08,10.82,.4,16.72h0Z" style="fill: #f2f2f2;"/>
    <path d="M436.42,372.96c.64-.76,1.26-1.54,1.86-2.32l.88-1.18,.7-.96c.9-1.24,1.74-2.48,2.54-3.7,1.6-2.42,2.98-4.76,4.12-6.76,1.12-2.02,1.98-3.7,2.56-4.9,.56-1.22,.84-1.94,.84-1.94,0,0-2.82,.82-7.2,2.18-4.32,1.38-10,3.38-15.54,5.98-1.4,.66-2.76,1.34-4.12,2.1-1.46,.82-2.88,1.66-4.26,2.5s-2.74,1.66-4.02,2.54c-1.28,.86-2.56,1.7-3.7,2.64-4.66,3.64-8.1,7.82-9.54,13.96,5.12,3.84,11.12,4.5,17.32,2.5,6.16-1.94,12.48-6.58,17.56-12.66h0v.02Z" style="fill: #f2f2f2;"/>
    <path d="M399.36,347.28c-1.62-5.72-3.96-10.86-5.88-14.54-.98-1.84-1.82-3.32-2.52-4.36-.68-1.04-1.08-1.62-1.08-1.62,0,0-.22,.58-.6,1.58-.42,1.02-1.04,2.46-1.7,4.24s-1.38,3.88-2.02,6.22c-.64,2.28-1.34,5.2-1.54,6.92-.54,4.06-1.2,8.92-.92,14.06,.34,5.12,1.6,10.56,5.66,15.5,5.84-1.36,9.64-5.7,11.3-11.02,.38-1.34,.72-2.7,.86-4.12,.12-1.42,.18-2.84,.08-4.26-.12-1.44-.32-2.86-.6-4.22-.3-1.48-.66-2.94-1.04-4.36h0v-.02Z" style="fill: #f2f2f2;"/>
    <path d="M463.92,302.68c.34-1.34,.46-2.1,.46-2.1,0,0-2.58,1.38-6.68,3.58-4,2.22-9.26,5.28-14.22,8.86-5.16,3.5-10.22,7.48-13.52,12.06-.8,1.16-1.64,2.3-2.3,3.5-.68,1.2-1.24,2.44-1.62,3.74-.82,2.6-1.04,5.4-.52,8.46,6.12,1.78,11.76,.42,16.84-2.84,1.26-.8,2.5-1.74,3.7-2.74,1.16-1.02,2.36-2.1,3.36-3.32,2.06-2.42,3.96-5.12,5.66-7.86,3.52-5.46,5.66-11.42,7.18-15.88,.74-2.24,1.32-4.12,1.68-5.42v-.04h-.02Z" style="fill: #f2f2f2;"/>
    <path d="M410.88,335.7c2.44-1.72,4.2-3.86,5.38-6.28,.6-1.18,1.04-2.46,1.38-3.76,.32-1.32,.56-2.66,.56-4.06,.04-5.62-1.58-11.54-4.08-16.8-2.66-5.28-5.9-9.84-8.48-13.02-1.32-1.6-2.42-2.86-3.3-3.72-.84-.86-1.36-1.34-1.36-1.34,0,0-.12,.58-.28,1.62-.22,1.02-.56,2.5-.86,4.3-.68,3.6-.98,8.52-1.32,13.78-.1,2.64,0,5.38,.36,8.1,.1,.7,.2,1.38,.3,2.06s.2,1.34,.3,2.02c.24,1.34,.58,2.66,1,3.96,1.68,5.18,4.86,9.96,10.42,13.16h-.02v-.02Z" style="fill: #f2f2f2;"/>
    <path d="M450.28,264.02c-1.04,1.14-2.06,2.32-3.02,3.52-.96,1.18-1.94,2.4-2.92,3.62-1.88,2.46-3.5,4.96-4.68,7.52-.6,1.28-1.04,2.58-1.44,3.9-.44,1.3-.76,2.62-.9,3.98-.3,2.68,0,5.46,1.1,8.36,6.34,.6,11.64-1.84,16.02-6.06,1.08-1.06,2.12-2.22,3.1-3.48,.94-1.26,1.74-2.62,2.54-4.04,1.56-2.84,2.88-5.9,4-9,.6-1.54,.98-3.12,1.36-4.68,.36-1.54,.7-3.06,.98-4.56,.56-2.96,1.04-5.74,1.2-8.12,.28-4.78,.2-7.94,.2-7.94,0,0-2.34,1.96-5.62,5.08-3.18,3.14-7.8,7.32-11.94,11.92h0l.02-.02Z" style="fill: #f2f2f2;"/>
    <path d="M427.36,284.4c.36-1.28,.56-2.6,.64-3.94,.04-1.34-.16-2.72-.42-4.08-.52-2.72-1.48-5.44-2.74-8.02-.32-.64-.66-1.28-.98-1.92-.38-.64-.8-1.24-1.2-1.86-.84-1.22-1.74-2.4-2.64-3.52-1.82-2.26-3.76-4.28-5.64-6.04-.9-.88-1.88-1.7-2.84-2.46-.94-.74-1.84-1.42-2.68-2.02-3.36-2.42-5.72-3.72-5.72-3.72,0,0-.04,2.3,.34,5.8,.14,.88,.18,1.82,.24,2.84,.08,1.02,.18,2.1,.32,3.22,.26,2.24,.76,4.66,1.24,7.16,.42,2.5,1.04,5.08,1.96,7.62,.44,1.26,.96,2.52,1.54,3.74,.52,1.22,1.08,2.42,1.76,3.58,2.66,4.62,6.7,8.64,12.76,10.72,2.08-2.12,3.38-4.54,4.1-7.1h-.04Z" style="fill: #f2f2f2;"/>
    <path d="M438.72,231.58c-.64,2.78-.82,5.48-.4,8.14,.2,1.32,.62,2.64,1.08,3.94,.44,1.3,1.08,2.6,1.9,3.88,6.3-.9,11.18-4.5,14.18-9.7,1.56-2.58,2.76-5.56,3.72-8.7,.84-3.14,1.26-6.44,1.54-9.74,.12-1.64,.22-3.3,.24-4.9-.06-1.6-.14-3.16-.24-4.66-.22-3.02-.56-5.82-.9-8.18-.96-4.68-1.86-7.7-1.86-7.7,0,0-1.74,2.48-4.12,6.34-1.18,1.9-2.56,4.16-4.08,6.64-1.48,2.48-3,5.14-4.42,7.88-1.34,2.72-2.84,5.56-4,8.36-1.2,2.82-2.06,5.62-2.6,8.4h-.04Z" style="fill: #f2f2f2;"/>
    <path d="M426.64,230.78c-1.14-2.48-2.86-4.84-4.74-6.98-.96-1.08-1.96-2.1-3-3.08s-2.28-1.86-3.42-2.72c-4.74-3.36-9.48-5.76-13.46-7.2-3.84-1.44-6.46-2.08-6.46-2.08,0,0,.56,2.2,1.82,5.42,.54,1.64,1.16,3.56,2.04,5.6,.4,1.02,.88,2.08,1.4,3.16,.5,1.08,.94,2.22,1.5,3.32,1.04,2.24,2.36,4.5,3.86,6.68,1.34,2.18,2.96,4.28,4.88,6.16,3.92,3.7,8.52,6.64,14.9,7.24,.78-1.26,1.38-2.54,1.8-3.84,.42-1.32,.52-2.64,.56-3.94,0-2.62-.62-5.24-1.66-7.74h-.02Z" style="fill: #f2f2f2;"/>
    <path d="M435.34,145.74s-1.04,2.76-2.52,7.1c-1.48,4.34-3.16,10-4.72,16.04-.76,3-1.28,6.02-1.74,9.02-.46,3.02-.68,5.98-.46,8.74,.14,1.38,.24,2.76,.5,4.08,.28,1.34,.66,2.62,1.18,3.84,.54,1.22,1.2,2.38,2.04,3.5,.78,1.12,1.72,2.22,2.84,3.24,2.96-1.24,5.34-3.04,7.22-5.24,1.92-2.22,3.12-4.8,4-7.68,.44-1.44,.76-2.96,1.02-4.52,.2-1.56,.38-3.18,.36-4.76,0-3.22-.36-6.54-.86-9.76-1.28-6.36-3.32-12.42-5.34-16.64-.96-2.14-1.82-3.9-2.44-5.12-.66-1.18-1.06-1.84-1.06-1.84h-.02Z" style="fill: #f2f2f2;"/>
    <path d="M416.38,190.66c-.6-1.18-1.3-2.32-2.22-3.34-1.78-2.08-3.92-3.94-6.28-5.54-2.36-1.6-5.1-2.86-7.7-3.92-1.32-.52-2.66-1-3.96-1.42s-2.66-.74-3.94-1.02c-2.54-.58-4.9-.96-6.92-1.22-2.02-.24-3.68-.38-4.88-.42-1.22-.06-1.9-.06-1.9-.06,0,0,.28,.5,.84,1.34,.52,.86,1.22,2.1,2.2,3.56,.48,.72,1,1.5,1.6,2.32,.3,.4,.62,.84,.94,1.26,.28,.44,.6,.88,.92,1.34,1.28,1.8,2.78,3.7,4.48,5.56,1.56,1.92,3.36,3.78,5.34,5.5,.5,.44,1.04,.84,1.52,1.26,.5,.42,1,.82,1.52,1.22,1.04,.78,2.12,1.5,3.28,2.16,2.26,1.32,4.88,2.34,7.54,2.92,2.66,.6,5.56,.74,8.72,.2,.44-1.4,.7-2.8,.76-4.16,0-1.32-.16-2.64-.48-3.9s-.8-2.48-1.38-3.66h0v.02Z" style="fill: #f2f2f2;"/>
    <path d="M412.38,159.06c5.1-3.82,7.44-9.18,7.82-15.18,.16-2.96-.18-6.08-.84-9.22-.68-3.12-1.76-6.16-3-9.14-1.24-2.96-2.78-5.68-4.26-8.22-1.48-2.52-3.08-4.7-4.42-6.56-1.34-1.88-2.58-3.32-3.48-4.34-.86-.98-1.38-1.54-1.38-1.54,0,0-.48,2.96-.96,7.38-.26,2.26-.54,4.88-.74,7.68-.1,1.42-.2,2.86-.24,4.34-.08,1.5-.16,3.04-.18,4.58-.06,6.08,.2,12.4,1.82,17.7,.78,2.7,1.9,5.12,3.54,7.22,1.56,2.14,3.6,3.96,6.32,5.34v-.04h0Z" style="fill: #f2f2f2;"/>
    <path d="M391.46,148.44c-4.38-3.26-10.1-5.2-15.8-6.02-2.8-.46-5.64-.62-8.26-.64-2.62,0-5,.1-7.06,.3-4.12,.42-6.76,.98-6.76,.98,0,0,.36,.44,1.08,1.18,.7,.74,1.8,1.74,3,3,1.26,1.26,2.84,2.62,4.54,4.12,1.66,1.5,3.62,3.02,5.66,4.5,2.02,1.52,4.26,2.94,6.58,4.16,2.28,1.28,4.7,2.36,7.3,3.06,5.06,1.48,10.62,1.72,16.52-.86,.14-2.92-.44-5.56-1.62-7.9-1.26-2.28-3.06-4.24-5.18-5.9h0v.02Z" style="fill: #f2f2f2;"/>
  </g>
  <g>
    <path d="M272.2,274.88h-41.16l-2.48-8.1h40.36l19.34-9.72L216.4,114.1h-2.84l-71.42,143.6,20.46,9.06h41l-2.44,8.1h-41.6l-21.28-9.42-45.44,91.36,116.36,.36v-43.78h-64.1l1.28-3.44h138.88l1.28,3.44h-63.36v43.82l115.58,.36-46.62-92.74-19.98,10.04h.04v.02Zm-90.98,66.2l-46.48,.06,1.4-3.72h46.2l-1.1,3.64h0l-.02,.02Zm5.1-16.88l-.88,2.94h-45.44l1.1-2.94h45.22Zm-21.8-62.5l26.56-70.86h49.76l26.44,70.86h-40.26l-9.98-32.58h-2.08l-9.82,32.58h-40.62Zm-7.1,18.94h41.42l-.54,3.74h35.64l-1.14-3.74h41.54l3.1,8.3h-123.12l3.12-8.3h-.02Zm-8.2,21.88l2.52-6.72h128.26l2.52,6.72H149.22Zm96.94,21.68h44.44l1.1,2.94h-44.64s-.9-2.94-.9-2.94Zm50.78,16.96l-45.6-.06-1.36-4.4h45.28l1.66,4.48h0l.02-.02Z" style="fill: none;"/>
    <path d="M218.52,77.36h-7.14L64.36,370.16l3.58,5.8H361.98l3.58-5.8L218.52,77.36Zm4.68,279.86v-43.82h63.36l-1.28-3.44H146.4l-1.28,3.44h64.1v43.78l-116.36-.36,45.44-91.36,21.28,9.42h41.6l2.44-8.1h-41l-20.46-9.06L213.56,114.1h2.84l71.86,142.96-19.34,9.72h-40.36l2.48,8.1h41.16l19.98-10.04,46.62,92.74-115.58-.36h-.02Z" style="fill: #fff;"/>
    <polygon points="214.96 229.08 217.02 229.08 227 261.66 267.28 261.66 240.84 190.82 191.06 190.82 164.52 261.66 205.14 261.66 214.96 229.08" style="fill: #fff;"/>
    <polygon points="274.34 280.6 232.8 280.6 233.94 284.36 198.3 284.36 198.84 280.6 157.42 280.6 154.3 288.9 277.44 288.9 274.34 280.6" style="fill: #fff;"/>
    <polygon points="151.74 295.76 149.22 302.5 282.5 302.5 280 295.76 151.74 295.76" style="fill: #fff;"/>
    <polygon points="139.98 327.12 185.42 327.12 186.3 324.18 141.08 324.18 139.98 327.12" style="fill: #fff;"/>
    <polygon points="134.72 341.14 181.22 341.06 182.32 337.42 136.12 337.42 134.72 341.14" style="fill: #fff;"/>
    <polygon points="290.6 324.18 246.14 324.18 247.04 327.12 291.68 327.12 290.6 324.18" style="fill: #fff;"/>
    <polygon points="251.32 341.06 296.92 341.14 295.26 336.66 249.96 336.66 251.32 341.06" style="fill: #fff;"/>
  </g>
  <g>
    <path d="M267.18,245.68s-.04,0-.1-.06c-13.22,13.62-14.26,35.92,.06,50.24h0s.04,.06,.06,.08c14.46,14.4,37.02,13.18,50.58-.38,.46-.46,7.66-7.64,17.94-17.88l-50.32-50.32c-10.44,10.48-17.76,17.84-18.22,18.32h0Z" style="fill: none;"/>
    <path d="M275.2,306.12c16.1,9.24,28.7,2.48,28.7,2.48-15.32,5.06-28.7-2.48-28.7-2.48Z" style="fill: #fff;"/>
    <path d="M275.2,306.12c16.1,9.24,28.7,2.48,28.7,2.48-15.32,5.06-28.7-2.48-28.7-2.48Z" style="fill: #fff; isolation: isolate; opacity: .33;"/>
    <path d="M283.9,225.84l-.82-.82c-8.12,8.16-13.54,13.6-13.54,13.6-2.78,3.14-3.22,4.96-3.06,5.96,.44-1.02,1.28-2.32,2.76-4,0,0,5.9-5.92,14.66-14.74Z" style="fill: #fff;"/>
    <path d="M283.9,225.84l-.82-.82c-8.12,8.16-13.54,13.6-13.54,13.6-2.78,3.14-3.22,4.96-3.06,5.96,.44-1.02,1.28-2.32,2.76-4,0,0,5.9-5.92,14.66-14.74Z" style="fill: #fff; isolation: isolate; opacity: .15;"/>
    <path d="M360.42,148.92s.1-.1,.14-.16c.04-.04,.08-.08,.08-.08,0-.02,.08-.06,.14-.1-1.04,.1-1.96,.28-2.16,.48,0,0-.04,.04-.08,.08-.04,.06-.1,.1-.14,.16,0,0-1.9,1.92-5.08,5.1-7.24,7.28-26,26.16-43.96,44.18l.82,.82c18.34-18.42,37.5-37.68,44.96-45.2,3.28-3.3,5.26-5.28,5.26-5.28h.02Z" style="fill: #fff;"/>
    <path d="M360.42,148.92s.1-.1,.14-.16c.04-.04,.08-.08,.08-.08,0-.02,.08-.06,.14-.1-1.04,.1-1.96,.28-2.16,.48,0,0-.04,.04-.08,.08-.04,.06-.1,.1-.14,.16,0,0-1.9,1.92-5.08,5.1-7.24,7.28-26,26.16-43.96,44.18l.82,.82c18.34-18.42,37.5-37.68,44.96-45.2,3.28-3.3,5.26-5.28,5.26-5.28h.02Z" style="fill: #fff; isolation: isolate; opacity: .15;"/>
    <path d="M311.7,200.88l.06,.06c25.3-25.36,51.94-52.04,51.94-52.04,.08-.08,.14-.16,.22-.24,0-.02-.04-.04-.08-.06-.06,.08-.14,.16-.2,.24,0,0-26.68,26.74-51.94,52.06h0v-.02Z" style="fill: #fff; isolation: isolate; opacity: .32;"/>
    <path d="M285.42,227.36l-.06-.06c-10.24,10.26-17.42,17.46-17.88,17.94l-.38,.38,.1,.06c.46-.48,7.78-7.86,18.22-18.32Z" style="fill: #fff; isolation: isolate; opacity: .32;"/>
    <path d="M285.36,227.3l-1.46-1.46c-8.76,8.8-14.66,14.74-14.66,14.74-1.48,1.66-2.32,2.98-2.76,4,.1,.62,.46,.94,.62,1.06l.38-.38c.46-.46,7.64-7.66,17.88-17.94h0v-.02Z" style="fill: #fff;"/>
    <path d="M285.36,227.3l-1.46-1.46c-8.76,8.8-14.66,14.74-14.66,14.74-1.48,1.66-2.32,2.98-2.76,4,.1,.62,.46,.94,.62,1.06l.38-.38c.46-.46,7.64-7.66,17.88-17.94h0v-.02Z" style="fill: #fff; isolation: isolate; opacity: .32;"/>
    <path d="M360.8,148.58s-.12,.06-.14,.1c0,0-.04,.04-.08,.08-.04,.06-.1,.1-.14,.16,0,0-1.98,1.98-5.26,5.28-7.48,7.52-26.62,26.78-44.96,45.2l1.5,1.5c25.26-25.32,51.94-52.06,51.94-52.06,.08-.08,.14-.16,.2-.24-.34-.16-1.76-.14-3.04,0h0l-.02-.02Z" style="fill: #fff;"/>
    <path d="M360.8,148.58s-.12,.06-.14,.1c0,0-.04,.04-.08,.08-.04,.06-.1,.1-.14,.16,0,0-1.98,1.98-5.26,5.28-7.48,7.52-26.62,26.78-44.96,45.2l1.5,1.5c25.26-25.32,51.94-52.06,51.94-52.06,.08-.08,.14-.16,.2-.24-.34-.16-1.76-.14-3.04,0h0l-.02-.02Z" style="fill: #fff; isolation: isolate; opacity: .32;"/>
    <path d="M443.08,228.28l-52,52,.2,.2,52-52c.3-.3,.54-.64,.72-1-.08,0-.18-.04-.28-.04-.18,.3-.38,.58-.64,.84h0Z" style="fill: #fff; isolation: isolate; opacity: .33;"/>
    <path d="M346.34,325.08c-8.22,8.5-17.9,14.54-28.22,18.18-.12,.24-.18,.44-.2,.62,10.34-3.66,20.04-9.72,28.26-18.24,.6-.62,8.12-8.16,18.74-18.78l-.2-.2c-10.42,10.44-17.8,17.82-18.38,18.42h0Z" style="fill: #fff; isolation: isolate; opacity: .33;"/>
    <path d="M346.34,325.08c.58-.6,7.94-7.98,18.38-18.42l-1.1-1.1c-10.4,10.4-17.74,17.76-18.32,18.36-7.48,7.74-16.18,13.44-25.46,17.18-.94,.94-1.46,1.64-1.72,2.18,10.34-3.64,20.02-9.68,28.22-18.18h0v-.02Z" style="fill: #fff;"/>
    <path d="M346.34,325.08c.58-.6,7.94-7.98,18.38-18.42l-1.1-1.1c-10.4,10.4-17.74,17.76-18.32,18.36-7.48,7.74-16.18,13.44-25.46,17.18-.94,.94-1.46,1.64-1.72,2.18,10.34-3.64,20.02-9.68,28.22-18.18h0v-.02Z" style="fill: #fff; isolation: isolate; opacity: .33;"/>
    <path d="M441.62,227.54c-3.96,3.96-28.38,28.38-51.64,51.64l1.1,1.1,52-52c.26-.26,.46-.54,.64-.84-.54-.06-1.24-.06-2.1,.1h0Z" style="fill: #fff;"/>
    <path d="M441.62,227.54c-3.96,3.96-28.38,28.38-51.64,51.64l1.1,1.1,52-52c.26-.26,.46-.54,.64-.84-.54-.06-1.24-.06-2.1,.1h0Z" style="fill: #fff; isolation: isolate; opacity: .33;"/>
    <path d="M345.3,323.9c.58-.6,7.92-7.94,18.32-18.36l-1-1c-10.48,10.48-17.92,17.94-18.5,18.54-6.1,6.32-13.04,11.22-20.48,14.74-1.72,1.3-2.94,2.38-3.8,3.24,9.3-3.74,17.98-9.44,25.46-17.18h0v.02Z" style="fill: #fff;"/>
    <path d="M345.3,323.9c.58-.6,7.92-7.94,18.32-18.36l-1-1c-10.48,10.48-17.92,17.94-18.5,18.54-6.1,6.32-13.04,11.22-20.48,14.74-1.72,1.3-2.94,2.38-3.8,3.24,9.3-3.74,17.98-9.44,25.46-17.18h0v.02Z" style="fill: #fff; isolation: isolate; opacity: .14;"/>
    <path d="M441.62,227.54c-.88,.16-1.92,.5-3.16,1.12-.1,.12-.2,.26-.32,.36,0,0-24.96,24.94-49.16,49.16l1,1c23.26-23.26,47.68-47.68,51.64-51.64h0Z" style="fill: #fff;"/>
    <path d="M441.62,227.54c-.88,.16-1.92,.5-3.16,1.12-.1,.12-.2,.26-.32,.36,0,0-24.96,24.94-49.16,49.16l1,1c23.26-23.26,47.68-47.68,51.64-51.64h0Z" style="fill: #fff; isolation: isolate; opacity: .14;"/>
    <path d="M416.72,237.06c2.36-2.36,2.1-5.5,.36-9.26-1.42-3.12-1.4-4.96,.14-6.5,1.7-1.7,4.18-1.58,6.4,.66,1.5,1.5,2.42,3.38,2.78,4.98l2.4-1.26c-.3-1.5-1.58-3.78-3.2-5.4-3.98-3.98-8.16-3.6-10.76-1-2.48,2.48-2.42,5.28-.68,9.22,1.42,3.22,1.68,5.02,.1,6.6-1.14,1.14-3.4,1.66-5.7-.64-1.52-1.52-2.18-3.12-2.38-3.98l-2.38,1.18c.3,1.16,1.18,2.82,2.88,4.52,3.28,3.28,7.4,3.5,10.02,.88h.02Z" style="fill: #fff;"/>
    <path d="M330.26,144.54c2.62-2.62,4.62-4.72,6.68-7.18l.1,.04c-.94,2.5-1.72,5.28-2.48,8.48l-3.16,13.9,2.4,2.4,16.86-16.86-2.04-2.04-7.2,7.2c-2.8,2.8-4.8,4.86-6.8,7.1l-.1-.06c1-2.66,1.8-5.7,2.5-8.76l3.2-13.9-2.2-2.2-16.86,16.86,2.06,2.06,7.06-7.06h0l-.02,.02Z" style="fill: #fff;"/>
    <path d="M389.98,279.18l-.16-.16c-.46-.46-.46-1.2,0-1.66l48.34-48.34c.06-.06,.12-.12,.16-.18,.1-.12,.22-.22,.38-.3,1.14-.54,2.1-.84,2.94-1,.5-.1,.94-.14,1.34-.14,.52,0,.98-.32,1.12-.82,.4-1.38,.04-2.96-1.06-4.06l-23.06-23.06c-1.6-1.6-4.18-1.64-5.76-.06,0,0-26.16,26.1-51.24,51.1-.46,.46-1.2,.46-1.66,0l-49.56-49.56-.06-.06-1.5-1.5h0c-.46-.46-.46-1.2,0-1.66,17.7-17.78,36.02-36.18,43.14-43.36,3.18-3.18,5.08-5.1,5.08-5.1,.04-.04,.1-.1,.14-.16,.04-.04,.06-.06,.08-.08,.2-.2,1.14-.36,2.16-.48,.88-.08,1.82-.12,2.44-.08,.44,.02,.86-.2,1.08-.6,.82-1.54,.56-3.5-.76-4.82l-23.06-23.06c-1.6-1.6-4.18-1.64-5.76-.06,0,0-26.08,26.08-51.16,51.18-.46,.46-1.2,.46-1.66,0l-15.84-15.84c-.46-.46-.46-1.2,0-1.66l5.28-5.28-.06-.06,14.98-14.98c2.34-2.34,2.34-6.12,0-8.46l-15.46-15.46c-2.34-2.34-6.12-2.34-8.46,0l-48.92,48.92c-.16,.16-.28,.32-.42,.48-.04,.04-.06,.08-.1,.12l-2.6,2.6c-.18,.18-.28,.4-.32,.64l-5.42,32.38c-.06,.34,.04,.7,.28,.96l8.2,9.42c.44,.52,1.22,.54,1.7,.06l19.24-19.24,4.06-4.06c.46-.46,1.2-.46,1.66,0l15.82,15.82c.46,.46,.46,1.2,0,1.66-10,9.98-17,16.98-17.6,17.56-30.28,29.24-28.8,77.8,.68,107.86,.18,.18,.36,.38,.54,.56l.08-.1c21.48,21.06,52.06,27.52,78.42,18.42,.26-.08,.48-.26,.62-.5,.3-.48,.78-1.08,1.54-1.84,.86-.86,2.04-1.9,3.7-3.16,.06-.04,.14-.1,.22-.12,7.38-3.52,14.3-8.4,20.36-14.7,.56-.58,7.64-7.66,17.68-17.72,.46-.46,1.2-.46,1.66,0l.16,.16,1.1,1.1,.2,.2,18.02,18.02c.46,.46,1.2,.46,1.66,0l24.72-24.72c.46-.46,.46-1.2,0-1.66l-18.02-18.02-.2-.2-1.1-1.1h0v.02Zm15.04-48.1c.6-.3,1.32-.04,1.58,.58,.36,.82,.98,1.84,1.98,2.82,2.3,2.3,4.56,1.8,5.7,.64,1.58-1.58,1.32-3.38-.1-6.6-1.76-3.96-1.8-6.76,.68-9.22,2.6-2.6,6.78-2.98,10.76,1,1.3,1.3,2.36,3,2.9,4.4,.22,.56-.04,1.18-.56,1.44l-.3,.16c-.62,.32-1.38,.04-1.62-.6-.48-1.28-1.28-2.6-2.4-3.72-2.22-2.22-4.7-2.36-6.4-.66-1.56,1.56-1.58,3.38-.14,6.5,1.74,3.74,2,6.9-.36,9.26-2.62,2.62-6.76,2.4-10.02-.88-1.24-1.24-2.04-2.46-2.5-3.48-.26-.56,0-1.24,.56-1.52l.26-.12h-.02Zm-66.18-97.56l.92,.92c.28,.28,.4,.7,.32,1.08l-3.06,13.28c-.7,3.06-1.5,6.1-2.5,8.76l.1,.06c2-2.26,4-4.3,6.8-7.1l6.38-6.38c.46-.46,1.2-.46,1.66,0l.4,.4c.46,.46,.46,1.2,0,1.66l-15.2,15.2c-.46,.46-1.2,.46-1.66,0l-1.12-1.12c-.28-.28-.4-.7-.32-1.08l3-13.28c.76-3.2,1.52-5.98,2.48-8.48l-.1-.04c-2.06,2.46-4.06,4.56-6.68,7.18l-6.22,6.22c-.46,.46-1.2,.46-1.66,0l-.4-.4c-.46-.46-.46-1.2,0-1.66l15.2-15.2c.46-.46,1.2-.46,1.66,0h0v-.02Zm-63.62,172.58s13.36,7.54,28.7,2.48c0,0-12.6,6.78-28.7-2.48Zm42.58-10.56c-13.56,13.56-36.1,14.78-50.58,.38l-.06-.06h0c-14.08-14.12-13.3-35.94-.68-49.6,.32-.34,.36-.82,.16-1.24-.06-.14-.12-.3-.14-.48-.16-1,.28-2.8,3.04-5.94,0-.02,.04-.04,.06-.06,.4-.4,5.34-5.36,12.68-12.74,.46-.46,1.2-.46,1.66,0h0l1.46,1.46,.06,.06,49.48,49.48c.46,.46,.46,1.2,0,1.66-9.82,9.8-16.66,16.62-17.1,17.06h0l-.04,.02Z" style="fill: #fff;"/>
  </g>
</svg>