<?xml version="1.0" encoding="UTF-8"?>
<svg id="_图层_1" data-name="图层 1" xmlns="http://www.w3.org/2000/svg" viewBox="0 0 525 525">
  <circle cx="262.5" cy="262.5" r="262.5" style="fill: #e83a37;"/>
  <g>
    <path d="M202.7,434.37c-2.86-2.16-5.49-3.69-8.28-4.7-2.81-.98-5.67-1.51-8.71-1.64-6.06-.27-12.65,.85-18.96,2.39-6.32,1.55-12.32,3.44-16.82,4.98-4.46,1.49-7.39,2.65-7.39,2.65,0,0,2.86,1.66,7.44,3.62,4.59,1.96,10.95,4.18,17.88,5.39,6.88,1.2,14.4,1.35,20.94-.53,6.51-1.85,12.05-5.84,13.9-12.15Z" style="fill: #fff;"/>
    <path d="M183.39,406.34c2.46,5.52,6.03,10.92,10.72,14.44,2.33,1.73,4.94,3.06,7.75,3.6,2.79,.54,5.78,.4,8.69-.83,.14-6.61-1.66-11.83-4.48-16.41-2.84-4.55-6.86-8.49-11.02-11.88-4.16-3.37-8.42-6.2-11.63-8.21-3.21-2.02-5.4-3.19-5.4-3.19,0,0,.02,.72,.14,1.96,.12,1.23,.33,3,.68,5.13,.71,4.22,2.06,9.89,4.54,15.4Z" style="fill: #fff;"/>
    <path d="M137.94,421.08c6.33-.31,11.92-2.73,15.86-8.02-3.13-5.62-7.91-8.65-13.62-10.42-5.71-1.75-12.36-2.22-18.9-2.43-6.52-.19-13.01-.05-17.87-.03-5,.1-8.12,.14-8.12,.14,0,0,.6,.67,1.74,1.78,1.13,1.04,2.77,2.59,4.81,4.27,4.12,3.39,9.94,7.36,16.35,10.25,6.42,2.91,13.42,4.75,19.75,4.45Z" style="fill: #fff;"/>
    <path d="M149.97,396.11c3.59,4.56,8.6,7.56,14.84,7.23,2.53-6.07,2.1-11.88,.38-17.2-1.71-5.31-4.75-10.19-7.82-14.44-3.1-4.25-6.24-7.88-8.55-10.47-1.12-1.3-2.1-2.34-2.79-3.06-.64-.73-1.03-1.11-1.03-1.11,0,0-.22,.65-.53,1.82-.31,1.18-.66,2.85-.98,4.91-.67,4.15-.97,9.82-.09,15.76,.87,5.91,2.99,11.98,6.58,16.55Z" style="fill: #fff;"/>
    <path d="M72.53,350.75c-4.48-1.4-7.38-2.23-7.38-2.23,0,0,.27,.74,.84,1.99,.6,1.22,1.51,2.97,2.66,5.04,1.16,2.06,2.56,4.45,4.21,6.95,.82,1.25,1.69,2.53,2.62,3.82l.74,.99,.91,1.2c.64,.8,1.28,1.6,1.91,2.4,5.24,6.24,11.71,11.01,18.07,13.01,6.36,2.04,12.54,1.39,17.81-2.58-1.48-6.32-5.03-10.62-9.83-14.37-1.17-.96-2.48-1.81-3.79-2.72-1.31-.89-2.72-1.74-4.14-2.59-1.42-.9-2.88-1.75-4.37-2.6-1.42-.77-2.81-1.47-4.25-2.14-5.69-2.69-11.54-4.75-16.01-6.18Z" style="fill: #fff;"/>
    <path d="M116.45,361.98c1.69,5.46,5.63,9.94,11.61,11.33,4.18-5.1,5.49-10.68,5.83-15.95,.3-5.28-.38-10.27-.94-14.47-.2-1.78-.91-4.77-1.57-7.12-.68-2.42-1.42-4.59-2.1-6.41-.67-1.83-1.31-3.32-1.75-4.35-.38-1.05-.61-1.64-.61-1.64,0,0-.44,.59-1.12,1.66-.73,1.08-1.58,2.6-2.59,4.5-1.98,3.79-4.37,9.09-6.03,14.97-.42,1.48-.78,2.98-1.08,4.5-.29,1.41-.5,2.87-.64,4.35-.07,1.46-.02,2.92,.12,4.4,.14,1.46,.49,2.85,.87,4.24Z" style="fill: #fff;"/>
    <path d="M65.66,328.6c1.03,1.27,2.24,2.38,3.48,3.43,1.22,1.05,2.48,1.99,3.79,2.83,5.21,3.35,11.01,4.76,17.32,2.92,.53-3.15,.3-6.03-.53-8.71-.41-1.32-.98-2.61-1.69-3.84-.68-1.24-1.55-2.41-2.35-3.6-3.39-4.71-8.62-8.78-13.9-12.41-5.12-3.67-10.51-6.83-14.63-9.11-4.21-2.26-6.88-3.67-6.88-3.67,0,0,.13,.8,.48,2.17,.36,1.35,.93,3.26,1.71,5.57,1.57,4.57,3.75,10.73,7.39,16.33,1.75,2.83,3.7,5.61,5.81,8.1Z" style="fill: #fff;"/>
    <path d="M99.76,326.13c1.22,2.48,3.03,4.68,5.53,6.43,5.72-3.28,9.01-8.19,10.74-13.52,.44-1.34,.77-2.7,1.03-4.09,.13-.68,.23-1.38,.32-2.06,.09-.7,.21-1.4,.32-2.12,.36-2.83,.45-5.64,.36-8.35-.36-5.4-.68-10.49-1.37-14.18-.31-1.85-.66-3.37-.89-4.42-.18-1.07-.29-1.65-.29-1.65,0,0-.53,.48-1.4,1.38-.92,.89-2.06,2.18-3.39,3.82-2.68,3.28-6.02,7.98-8.73,13.43-2.57,5.39-4.23,11.47-4.19,17.26-.02,1.46,.22,2.84,.56,4.18,.33,1.35,.81,2.66,1.42,3.88Z" style="fill: #fff;"/>
    <path d="M54.68,276.64c.8,1.45,1.65,2.85,2.61,4.16,1,1.28,2.08,2.47,3.19,3.56,4.51,4.36,9.94,6.87,16.49,6.25,1.11-2.99,1.44-5.85,1.12-8.62-.16-1.38-.48-2.74-.91-4.08-.42-1.35-.87-2.69-1.49-4-1.21-2.65-2.88-5.23-4.82-7.75-1-1.25-1.99-2.5-2.97-3.74-1.01-1.22-2.04-2.43-3.1-3.6-4.28-4.72-9.03-9.04-12.31-12.27-3.38-3.2-5.78-5.24-5.78-5.24,0,0-.09,3.27,.2,8.19,.17,2.45,.68,5.31,1.24,8.36,.28,1.53,.62,3.1,1.01,4.7,.38,1.58,.76,3.22,1.39,4.8,1.16,3.19,2.53,6.34,4.13,9.27Z" style="fill: #fff;"/>
    <path d="M92.55,287.11c6.24-2.15,10.41-6.29,13.15-11.05,.69-1.2,1.28-2.43,1.8-3.69,.6-1.26,1.13-2.55,1.59-3.85,.91-2.6,1.57-5.24,2-7.82,.49-2.56,1.03-5.06,1.28-7.37,.14-1.16,.23-2.26,.32-3.31,.07-1.05,.11-2.03,.23-2.93,.4-3.58,.34-5.94,.34-5.94,0,0-2.42,1.33-5.87,3.82-.85,.62-1.78,1.32-2.75,2.08-.98,.78-1.98,1.61-2.92,2.53-1.93,1.81-3.91,3.91-5.8,6.21-.94,1.16-1.84,2.36-2.72,3.62-.41,.63-.84,1.28-1.23,1.93-.37,.64-.71,1.31-1.03,1.98-1.3,2.65-2.3,5.43-2.84,8.25-.23,1.4-.43,2.81-.4,4.18,.07,1.37,.29,2.74,.65,4.05,.74,2.65,2.08,5.14,4.19,7.31Z" style="fill: #fff;"/>
    <path d="M69.87,208.22c-1.46-2.81-3.03-5.54-4.56-8.1-1.58-2.57-3.01-4.89-4.19-6.84-2.46-3.95-4.25-6.52-4.25-6.52,0,0-.93,3.11-1.91,7.92-.37,2.45-.71,5.31-.94,8.42-.13,1.55-.22,3.15-.25,4.8,0,1.65,.11,3.34,.25,5.04,.3,3.38,.73,6.8,1.59,10.03,.96,3.24,2.22,6.31,3.82,8.96,3.1,5.34,8.09,9.06,14.58,9.97,.85-1.32,1.48-2.64,1.95-3.99,.46-1.34,.91-2.69,1.1-4.05,.45-2.73,.23-5.54-.42-8.39-.55-2.84-1.42-5.72-2.65-8.62-1.23-2.9-2.75-5.82-4.13-8.62Z" style="fill: #fff;"/>
    <path d="M105.15,233.14c1.97-1.92,3.63-4.08,5.01-6.33,1.53-2.24,2.9-4.54,3.98-6.86,.58-1.15,1-2.29,1.55-3.41,.53-1.11,1.02-2.2,1.44-3.25,.89-2.11,1.51-4.08,2.1-5.76,1.3-3.33,1.84-5.58,1.84-5.58,0,0-2.67,.65-6.65,2.14-4.07,1.46-8.96,3.94-13.82,7.39-1.19,.86-2.45,1.79-3.52,2.8-1.08,.99-2.13,2.04-3.1,3.15-1.93,2.22-3.7,4.63-4.86,7.2-1.1,2.57-1.72,5.26-1.72,7.97,.02,1.34,.13,2.7,.55,4.04,.46,1.34,1.05,2.67,1.88,3.96,6.58-.62,11.3-3.65,15.33-7.47Z" style="fill: #fff;"/>
    <path d="M86,190.97c.87-1.14,1.57-2.34,2.12-3.6,.55-1.26,.95-2.58,1.22-3.95,.27-1.36,.38-2.78,.53-4.2,.2-2.85,0-5.88-.48-8.99s-1-6.19-1.81-9.3c-1.58-6.21-3.31-12.04-4.84-16.5-1.54-4.46-2.59-7.3-2.59-7.3,0,0-.42,.67-1.09,1.9-.66,1.25-1.54,3.03-2.52,5.24-2.1,4.36-4.18,10.58-5.49,17.12-.54,3.33-.89,6.74-.89,10.03-.04,1.64,.13,3.31,.39,4.91,.23,1.62,.56,3.16,1,4.65,.91,2.98,2.15,5.63,4.12,7.91,1.94,2.28,4.39,4.11,7.42,5.4,1.17-1.05,2.13-2.16,2.92-3.33Z" style="fill: #fff;"/>
    <path d="M137.69,167.34c.56-.88,.86-1.4,.86-1.4,0,0-.71,0-1.94,.05-1.26,.04-2.97,.18-5.05,.44-2.08,.26-4.5,.66-7.15,1.26-1.3,.3-2.7,.62-4.03,1.05-1.32,.43-2.69,.9-4.06,1.45-2.7,1.09-5.51,2.41-7.95,4.03-2.41,1.65-4.64,3.55-6.45,5.71-.94,1.06-1.65,2.22-2.27,3.44-.59,1.2-1.07,2.46-1.42,3.76-.32,1.3-.5,2.65-.5,4.02,.07,1.39,.34,2.83,.8,4.27,3.22,.54,6.24,.38,8.98-.22,2.72-.62,5.38-1.64,7.73-2.99,1.19-.67,2.29-1.43,3.37-2.24,.55-.4,1.05-.83,1.55-1.26,.53-.42,1.06-.85,1.57-1.3,2.06-1.76,3.89-3.69,5.51-5.65,1.73-1.9,3.3-3.85,4.62-5.71,.32-.46,.63-.92,.95-1.36,.34-.45,.64-.88,.96-1.3,.6-.85,1.17-1.65,1.66-2.39,.99-1.5,1.74-2.78,2.27-3.66Z" style="fill: #fff;"/>
    <path d="M103.76,150.86c2.81-1.42,4.89-3.29,6.49-5.49,1.7-2.14,2.86-4.66,3.64-7.43,1.7-5.44,1.97-11.92,1.9-18.19-.02-1.59-.09-3.16-.18-4.71-.05-1.51-.15-3.01-.26-4.45-.22-2.9-.5-5.6-.76-7.91-.47-4.56-.98-7.6-.98-7.6,0,0-.53,.59-1.44,1.61-.89,1.03-2.17,2.52-3.55,4.46-1.4,1.93-3.04,4.15-4.58,6.75-1.49,2.6-3.08,5.41-4.36,8.45-1.25,3.07-2.4,6.2-3.1,9.4-.69,3.22-1.02,6.43-.87,9.47,.4,6.17,2.83,11.69,8.05,15.63Z" style="fill: #fff;"/>
    <path d="M149.53,147.55c2.12-1.53,4.12-3.08,5.83-4.64,1.77-1.53,3.37-2.94,4.65-4.23,1.28-1.3,2.39-2.34,3.11-3.1,.73-.75,1.12-1.2,1.12-1.2,0,0-2.72-.6-6.97-1.02-2.12-.2-4.55-.31-7.25-.29-2.7,.02-5.62,.19-8.5,.66-5.85,.86-11.74,2.84-16.25,6.18-2.19,1.72-4.02,3.75-5.32,6.09-1.21,2.39-1.83,5.12-1.68,8.11,6.06,2.64,11.78,2.41,16.99,.89,2.66-.75,5.18-1.84,7.51-3.15,2.39-1.28,4.68-2.73,6.74-4.3Z" style="fill: #fff;"/>
    <path d="M137.89,395.15c17.23,14.29,38.23,24.07,58.84,32.39,16.87,6.82,38.5,17.96,60.54,28.34-19.81,6.17-39.36,11.21-55.07,13.85-2.06,.33,8.51,11.1,10.5,10.5,18.24-5.49,36.76-12.16,55.02-19.53,19.94,9.06,39.64,16.83,55.85,19.54,2.04,.34,8.39-10.52,6.34-10.86-15.36-2.57-33.21-7.14-51.79-12.96,30.61-12.85,60.08-27.4,85.55-41.26,27.66-15.07,48.42-36.45,62.07-64.89,12.65-26.33,21.57-55.44,22.89-84.68,1.82-40.5-11.78-80.23-32.88-114.37-6.17-9.99-13.09-19.96-20.75-29.22,.67-2.57,.76-5.07,.32-7.42-.51-2.79-1.6-5.48-3.27-7.88-3.2-4.9-8.41-8.85-13.73-11.8-5.35-2.92-10.92-4.77-15.07-5.77-2.1-.51-3.82-.8-5.01-.97-.6-.07-1.08-.13-1.39-.14-.28-.02-.44-.02-.44-.02,0,0,.05,.14,.18,.42,.15,.27,.33,.69,.6,1.22,.55,1.08,1.33,2.59,2.32,4.43,1.98,3.66,4.68,8.48,7.88,13.18,1.57,2.37,3.37,4.62,5.21,6.76,.93,1.06,1.92,2.06,2.95,2.98,1,.95,2.04,1.83,3.16,2.61,2.24,1.51,4.59,2.76,7.24,3.44,2,.49,4.11,.71,6.38,.57,14.71,17.39,26.74,37.59,35.91,57.87,11.66,25.82,17.88,53.96,17.21,82.31-.71,30.91-11.02,62.29-24.89,89.75-10.79,21.37-26.5,38.79-46.59,51.79-17.97,11.61-37.68,20.33-57.28,28.8-14.68,6.36-32.1,12.88-49.77,18.68-37.84-12.64-77.39-29.74-104.8-45.22-14.33-8.07-27.29-17.98-38.03-30.5-10.72-12.51-18.45-27.35-24.65-42.51-11.77-28.76-19.23-58.53-17.41-89.77,2.13-36.43,16.44-71.28,36.39-101.5,5.12-7.74,10.66-15.46,16.69-22.73,2.17,.11,4.21-.12,6.16-.59,2.64-.67,4.98-1.91,7.24-3.44,1.09-.77,2.15-1.65,3.15-2.6,1.04-.92,2.02-1.92,2.95-2.98,1.86-2.15,3.63-4.39,5.22-6.77,3.19-4.69,5.89-9.53,7.86-13.18,.98-1.83,1.78-3.37,2.31-4.44,.27-.53,.48-.94,.62-1.22,.11-.27,.16-.41,.16-.41,0,0-.14,0-.43,0-.32,.02-.77,.08-1.37,.15-1.21,.17-2.94,.47-5.01,.97-4.16,1-9.72,2.84-15.08,5.77-5.32,2.96-10.51,6.89-13.73,11.81-1.66,2.41-2.77,5.09-3.26,7.86-.46,2.32-.37,4.77,.27,7.29-14.08,16.73-25.72,35.99-34.75,55.27-11.13,23.85-17.87,49.64-18.88,75.98-1.15,30.25,7.07,59.25,18.45,86.99,9.13,22.32,22.19,42.62,40.87,58.12Z" style="fill: #fff;"/>
    <path d="M359.41,450.11c6.91-1.19,13.28-3.41,17.87-5.38,4.57-1.97,7.43-3.61,7.43-3.61,0,0-2.92-1.17-7.4-2.66-4.49-1.53-10.49-3.43-16.81-4.98-6.33-1.52-12.91-2.66-18.96-2.38-3.04,.12-5.92,.65-8.71,1.64-2.81,.99-5.41,2.53-8.27,4.68,1.84,6.33,7.38,10.32,13.89,12.16,6.54,1.89,14.06,1.74,20.96,.52Z" style="fill: #fff;"/>
    <path d="M325.42,427.43c2.79-.53,5.37-1.85,7.73-3.58,4.68-3.53,8.25-8.91,10.72-14.43,2.48-5.52,3.81-11.2,4.54-15.43,.35-2.12,.55-3.89,.67-5.12,.11-1.23,.14-1.95,.14-1.95,0,0-2.19,1.18-5.39,3.18-3.21,2.03-7.46,4.84-11.64,8.23-4.14,3.39-8.18,7.33-11.03,11.88-2.83,4.58-4.62,9.8-4.45,16.41,2.88,1.23,5.89,1.38,8.69,.82Z" style="fill: #fff;"/>
    <path d="M405.98,403.29c-6.54,.22-13.22,.67-18.91,2.43-5.71,1.77-10.48,4.81-13.6,10.41,3.91,5.29,9.52,7.74,15.84,8.02,6.33,.31,13.33-1.53,19.75-4.44,6.42-2.91,12.23-6.85,16.34-10.26,2.06-1.67,3.7-3.21,4.83-4.27,1.13-1.1,1.73-1.76,1.73-1.76,0,0-3.13-.05-8.11-.15-4.87-.03-11.34-.17-17.86,.02Z" style="fill: #fff;"/>
    <path d="M362.45,406.41c6.21,.33,11.24-2.67,14.84-7.23,3.56-4.57,5.72-10.64,6.58-16.55,.87-5.94,.59-11.62-.11-15.76-.32-2.07-.67-3.74-.99-4.92-.31-1.17-.53-1.83-.53-1.83,0,0-.38,.39-1.03,1.12-.69,.71-1.66,1.75-2.77,3.06-2.31,2.61-5.44,6.22-8.55,10.46-3.06,4.26-6.1,9.13-7.84,14.44-1.69,5.34-2.13,11.14,.4,17.21Z" style="fill: #fff;"/>
    <path d="M448.22,373.98c.66-.78,1.3-1.58,1.92-2.39l.91-1.22,.73-.99c.93-1.27,1.8-2.56,2.61-3.81,1.64-2.5,3.06-4.89,4.23-6.95,1.14-2.07,2.03-3.81,2.64-5.04,.59-1.26,.86-2,.86-2,0,0-2.9,.84-7.4,2.25-4.45,1.41-10.3,3.48-15.98,6.16-1.44,.68-2.84,1.38-4.25,2.15-1.49,.85-2.97,1.71-4.37,2.58-1.42,.87-2.83,1.71-4.14,2.62-1.31,.88-2.63,1.75-3.8,2.71-4.79,3.74-8.34,8.04-9.82,14.37,5.27,3.96,11.45,4.63,17.81,2.58,6.34-2,12.83-6.77,18.06-13.03Z" style="fill: #fff;"/>
    <path d="M410.08,347.56c-1.67-5.88-4.07-11.17-6.04-14.97-1-1.9-1.88-3.42-2.59-4.49-.69-1.07-1.11-1.66-1.11-1.66,0,0-.23,.59-.62,1.62-.44,1.04-1.08,2.53-1.75,4.36-.68,1.83-1.42,4-2.09,6.41-.66,2.34-1.39,5.35-1.58,7.13-.56,4.18-1.23,9.18-.95,14.46,.34,5.27,1.66,10.86,5.81,15.95,6-1.4,9.92-5.87,11.63-11.34,.39-1.38,.74-2.78,.88-4.24,.13-1.47,.18-2.93,.09-4.39-.13-1.48-.33-2.93-.62-4.35-.31-1.52-.68-3.03-1.07-4.5Z" style="fill: #fff;"/>
    <path d="M476.51,301.66c.34-1.37,.47-2.16,.47-2.16,0,0-2.66,1.41-6.87,3.68-4.12,2.28-9.52,5.43-14.62,9.11-5.3,3.61-10.52,7.7-13.91,12.41-.83,1.18-1.68,2.36-2.38,3.6-.69,1.24-1.28,2.52-1.67,3.85-.84,2.67-1.06,5.55-.53,8.7,6.29,1.84,12.1,.42,17.33-2.93,1.3-.83,2.56-1.79,3.81-2.83,1.2-1.05,2.42-2.17,3.47-3.42,2.12-2.49,4.08-5.27,5.81-8.1,3.63-5.62,5.81-11.76,7.38-16.34,.76-2.29,1.35-4.23,1.72-5.57Z" style="fill: #fff;"/>
    <path d="M421.95,335.64c2.5-1.76,4.32-3.97,5.54-6.45,.62-1.22,1.07-2.53,1.42-3.87,.32-1.35,.59-2.73,.57-4.18,.04-5.79-1.63-11.87-4.19-17.28-2.74-5.44-6.08-10.12-8.73-13.4-1.35-1.64-2.48-2.93-3.39-3.83-.87-.89-1.4-1.39-1.4-1.39,0,0-.13,.6-.3,1.66-.23,1.06-.58,2.57-.89,4.43-.69,3.7-1.02,8.77-1.37,14.17-.11,2.71,0,5.53,.37,8.34,.11,.72,.22,1.42,.31,2.12s.21,1.38,.32,2.07c.25,1.39,.59,2.75,1.03,4.08,1.74,5.32,5,10.25,10.72,13.54Z" style="fill: #fff;"/>
    <path d="M462.47,261.89c-1.08,1.18-2.11,2.39-3.11,3.62-.99,1.22-1.99,2.47-3,3.72-1.93,2.52-3.59,5.1-4.81,7.74-.62,1.31-1.08,2.66-1.48,4.01-.46,1.35-.77,2.7-.92,4.09-.31,2.76,0,5.62,1.13,8.6,6.52,.62,11.98-1.89,16.48-6.24,1.11-1.08,2.19-2.29,3.19-3.57,.97-1.3,1.79-2.7,2.61-4.16,1.6-2.92,2.97-6.07,4.12-9.27,.62-1.58,1.02-3.21,1.4-4.82,.38-1.58,.71-3.16,1-4.68,.57-3.05,1.06-5.9,1.24-8.36,.29-4.92,.2-8.18,.2-8.18,0,0-2.4,2.02-5.78,5.23-3.28,3.23-8.02,7.54-12.29,12.26Z" style="fill: #fff;"/>
    <path d="M438.9,282.88c.36-1.32,.59-2.68,.66-4.05,.04-1.39-.16-2.79-.42-4.19-.53-2.8-1.53-5.59-2.83-8.25-.32-.67-.68-1.32-1.02-1.97-.39-.65-.82-1.28-1.24-1.91-.86-1.26-1.78-2.48-2.72-3.63-1.87-2.32-3.86-4.41-5.8-6.22-.93-.91-1.93-1.75-2.92-2.53-.96-.76-1.9-1.47-2.75-2.09-3.47-2.48-5.89-3.83-5.89-3.83,0,0-.04,2.37,.34,5.96,.15,.91,.19,1.88,.24,2.93,.09,1.05,.18,2.15,.32,3.3,.26,2.3,.78,4.8,1.28,7.37,.44,2.57,1.08,5.22,2.01,7.83,.45,1.29,.98,2.58,1.58,3.85,.53,1.26,1.12,2.5,1.81,3.68,2.73,4.75,6.88,8.9,13.12,11.04,2.13-2.18,3.48-4.67,4.21-7.3Z" style="fill: #fff;"/>
    <path d="M450.58,228.53c-.66,2.85-.84,5.64-.41,8.38,.2,1.37,.64,2.71,1.11,4.05,.46,1.34,1.12,2.68,1.95,4,6.49-.92,11.5-4.63,14.58-9.97,1.61-2.66,2.84-5.71,3.83-8.96,.85-3.23,1.3-6.63,1.58-10.03,.13-1.69,.23-3.4,.25-5.05-.05-1.64-.14-3.24-.25-4.78-.23-3.11-.57-5.98-.93-8.42-.99-4.81-1.92-7.92-1.92-7.92,0,0-1.78,2.56-4.25,6.52-1.21,1.95-2.63,4.28-4.19,6.84-1.53,2.55-3.1,5.29-4.55,8.1-1.39,2.79-2.92,5.71-4.12,8.6-1.24,2.91-2.12,5.79-2.68,8.64Z" style="fill: #fff;"/>
    <path d="M438.15,227.7c-1.17-2.56-2.93-4.98-4.87-7.19-.98-1.1-2.03-2.17-3.1-3.16-1.08-1-2.34-1.91-3.52-2.79-4.87-3.45-9.76-5.93-13.84-7.4-3.95-1.49-6.65-2.13-6.65-2.13,0,0,.57,2.26,1.86,5.57,.56,1.69,1.2,3.67,2.1,5.77,.41,1.05,.91,2.14,1.44,3.24,.52,1.12,.96,2.28,1.55,3.42,1.07,2.31,2.42,4.62,3.97,6.86,1.39,2.25,3.05,4.41,5.01,6.34,4.03,3.81,8.76,6.83,15.34,7.45,.8-1.3,1.42-2.61,1.85-3.95,.44-1.35,.53-2.71,.57-4.06,0-2.7-.64-5.4-1.71-7.97Z" style="fill: #fff;"/>
    <path d="M447.1,140.21s-1.07,2.84-2.6,7.3c-1.53,4.46-3.25,10.29-4.85,16.51-.78,3.1-1.31,6.19-1.79,9.29-.47,3.11-.69,6.14-.47,8.99,.14,1.42,.25,2.84,.52,4.2,.28,1.38,.67,2.69,1.22,3.95,.55,1.25,1.24,2.45,2.1,3.6,.8,1.16,1.77,2.28,2.92,3.33,3.05-1.28,5.49-3.12,7.42-5.4,1.98-2.28,3.2-4.93,4.11-7.91,.46-1.48,.78-3.04,1.04-4.65,.22-1.61,.4-3.27,.36-4.9-.02-3.31-.36-6.73-.89-10.04-1.31-6.54-3.41-12.77-5.49-17.11-.98-2.21-1.87-4.01-2.51-5.26-.67-1.22-1.1-1.89-1.1-1.89Z" style="fill: #fff;"/>
    <path d="M427.6,186.43c-.62-1.21-1.33-2.39-2.28-3.43-1.83-2.14-4.03-4.06-6.45-5.71-2.43-1.64-5.24-2.93-7.93-4.03-1.37-.54-2.74-1.03-4.07-1.45-1.33-.43-2.74-.76-4.05-1.05-2.62-.6-5.05-.99-7.13-1.25-2.08-.26-3.79-.39-5.03-.43-1.26-.06-1.94-.05-1.94-.05,0,0,.29,.51,.86,1.39,.53,.89,1.25,2.17,2.26,3.66,.49,.75,1.04,1.55,1.66,2.39,.32,.42,.64,.86,.97,1.29,.29,.46,.61,.91,.94,1.38,1.31,1.86,2.86,3.8,4.61,5.71,1.61,1.97,3.45,3.89,5.49,5.65,.51,.45,1.06,.87,1.57,1.29,.51,.44,1.03,.84,1.57,1.26,1.06,.8,2.19,1.55,3.38,2.21,2.33,1.36,5.01,2.4,7.75,3.01,2.74,.61,5.72,.76,8.97,.21,.45-1.44,.73-2.87,.78-4.28,0-1.37-.17-2.71-.49-4.01-.32-1.3-.82-2.56-1.42-3.77Z" style="fill: #fff;"/>
    <path d="M423.49,153.92c5.24-3.94,7.66-9.45,8.05-15.62,.16-3.05-.19-6.25-.86-9.48-.69-3.21-1.82-6.34-3.1-9.4-1.28-3.04-2.86-5.85-4.37-8.45-1.51-2.6-3.18-4.83-4.55-6.75-1.39-1.93-2.66-3.42-3.58-4.46-.89-1.02-1.42-1.59-1.42-1.59,0,0-.5,3.05-.98,7.59-.27,2.32-.55,5.02-.76,7.9-.11,1.45-.2,2.94-.25,4.46-.09,1.54-.17,3.12-.19,4.7-.07,6.26,.21,12.75,1.88,18.2,.8,2.77,1.95,5.27,3.64,7.42,1.6,2.2,3.7,4.07,6.51,5.49Z" style="fill: #fff;"/>
    <path d="M401.96,142.99c-4.5-3.35-10.39-5.34-16.25-6.2-2.88-.47-5.8-.63-8.5-.66-2.69,0-5.14,.09-7.25,.3-4.25,.43-6.96,1.01-6.96,1.01,0,0,.38,.45,1.11,1.21,.73,.77,1.85,1.8,3.1,3.1,1.3,1.29,2.93,2.7,4.67,4.23,1.71,1.55,3.72,3.11,5.81,4.64,2.08,1.56,4.37,3.02,6.77,4.28,2.35,1.32,4.84,2.43,7.51,3.15,5.21,1.53,10.92,1.77,16.99-.89,.14-3-.46-5.72-1.67-8.12-1.3-2.34-3.14-4.36-5.33-6.07Z" style="fill: #fff;"/>
  </g>
  <g>
    <g>
      <path d="M186.89,368.82c30.91,30.31,80.09,31.22,110.18,.08,2.22-2.3,99.53-99.59,99.53-99.59,1.62-1.62,1.59-4.27-.07-5.92l-23.73-23.73c-1.65-1.65-4.3-1.68-5.92-.07,0,0-97.4,97.16-99.18,98.93-13.95,13.95-37.15,15.2-52.03,.39l-29.43,29.43c.19,.19,.37,.38,.56,.57l.09-.09Z" style="fill: #fff;"/>
      <path d="M215.62,338.86l-.03-.03c-14.87-14.87-13.63-38.12,.33-52.08,1.77-1.77,98.93-99.18,98.93-99.18,1.62-1.62,1.59-4.27-.07-5.92l-23.73-23.73c-1.65-1.65-4.3-1.68-5.92-.07,0,0-97.29,97.31-99.59,99.53-31.15,30.09-29.62,80.05,.69,110.96l29.43-29.43s-.04-.03-.06-.05Z" style="fill: #fff;"/>
      <path d="M253.41,351.93s-12.97,6.97-29.52-2.54c0,0,13.75,7.76,29.52,2.54Z" style="fill: #fff; opacity: .33;"/>
      <path d="M306.16,193.09c3.38-3.39,5.41-5.43,5.41-5.43,.05-.05,.1-.11,.15-.17l.08-.08s.08-.06,.15-.09c-1.06,.11-2.03,.28-2.23,.48l-.08,.08c-.05,.05-.09,.11-.14,.16,0,0-1.96,1.97-5.22,5.24-15.93,16.04-86.22,86.64-86.22,86.64-2.85,3.24-3.32,5.1-3.15,6.13,.46-1.05,1.33-2.39,2.84-4.11,0,0,71.92-72.25,88.42-88.86Z" style="fill: #fff; opacity: .15;"/>
      <path d="M215.64,287.21c1.72-1.84,99.29-99.57,99.29-99.57,.08-.08,.15-.16,.22-.25-.12-.23-1.75-.22-3.21-.07-.07,.03-.12,.06-.15,.09l-.08,.08c-.05,.06-.09,.11-.15,.17,0,0-2.03,2.04-5.41,5.43-16.5,16.61-88.42,88.86-88.42,88.86-1.51,1.72-2.38,3.06-2.84,4.11,.14,.87,.74,1.15,.74,1.15Z" style="fill: #fff; opacity: .32;"/>
      <path d="M296,367.7c-7.69,7.97-16.64,13.83-26.2,17.67-1.41,1.4-1.9,2.31-1.98,2.88,10.65-3.77,20.61-10,29.08-18.77,2.23-2.31,99.91-99.96,99.91-99.96,.31-.31,.55-.65,.74-1.02-.58-.11-1.4-.14-2.45,.05-8,8-97,96.98-99.1,99.15Z" style="fill: #fff; opacity: .33;"/>
      <path d="M391.53,270.07s-94.6,94.58-96.74,96.79c-6.28,6.5-13.43,11.55-21.07,15.17-1.76,1.35-3.02,2.44-3.92,3.34,9.56-3.84,18.51-9.71,26.2-17.67,2.1-2.17,91.09-91.15,99.1-99.15-.91,.17-1.98,.51-3.25,1.14-.1,.13-.21,.26-.33,.38Z" style="fill: #fff; opacity: .14;"/>
    </g>
    <path d="M379.44,267.92c-.36-1.65-1.31-3.58-2.86-5.12-2.29-2.29-4.84-2.42-6.59-.67-1.6,1.6-1.62,3.47-.15,6.69,1.8,3.86,2.06,7.1-.36,9.52-2.7,2.7-6.95,2.47-10.32-.9-1.75-1.75-2.65-3.47-2.96-4.66l2.44-1.21c.21,.88,.87,2.52,2.44,4.09,2.37,2.37,4.68,1.85,5.86,.67,1.62-1.62,1.36-3.47-.1-6.79-1.8-4.07-1.85-6.95,.7-9.49,2.67-2.67,6.97-3.06,11.06,1.03,1.67,1.67,2.99,4.01,3.29,5.56l-2.47,1.29Z" style="fill: #e83a37;"/>
    <path d="M301.52,183.97l-17.34,17.34-2.47-2.47,3.24-14.3c.77-3.29,1.57-6.15,2.55-8.72l-.1-.05c-2.11,2.52-4.17,4.68-6.87,7.38l-7.25,7.25-2.11-2.11,17.34-17.34,2.26,2.26-3.29,14.3c-.72,3.14-1.54,6.28-2.57,9l.1,.05c2.06-2.32,4.12-4.42,7-7.31l7.41-7.41,2.11,2.11Z" style="fill: #e83a37;"/>
    <rect x="159.05" y="258.05" width="222.71" height="38.38" transform="translate(275.23 -110) rotate(45)" style="fill: #fff;"/>
    <polygon points="239.64 167.26 187.82 219.08 181.46 225.44 156.85 200.82 215.03 142.64 239.64 167.26" style="fill: #fff;"/>
    <polyline points="146.91 259.99 181.46 225.44 156.85 200.82" style="fill: #fff;"/>
  </g>
</svg>